<svg width="37" height="37" viewBox="0 0 37 37" fill="none" xmlns="http://www.w3.org/2000/svg">
<mask id="mask0_644_2280" style="mask-type:alpha" maskUnits="userSpaceOnUse" x="0" y="0" width="37" height="37">
<rect x="0.980469" y="0.270508" width="36" height="36" fill="#D9D9D9"/>
</mask>
<g mask="url(#mask0_644_2280)">
<path d="M29.1687 30.0397C26.7167 30.0397 24.1898 29.4149 21.5878 28.1654C18.9859 26.9159 16.5648 25.1623 14.3244 22.9046C12.0715 20.6594 10.3227 18.2406 9.07799 15.6483C7.83329 13.056 7.21094 10.5315 7.21094 8.07476C7.21094 7.62971 7.35874 7.25618 7.65434 6.95418C7.94994 6.65221 8.31944 6.50122 8.76284 6.50122H12.3109C12.7186 6.50122 13.0698 6.62261 13.3645 6.86538C13.6593 7.10818 13.8619 7.4368 13.9725 7.85122L14.7167 11.3358C14.7859 11.7118 14.7701 12.0546 14.669 12.3643C14.568 12.674 14.4039 12.9298 14.1765 13.1316L10.9537 16.1589C11.572 17.2762 12.2488 18.3126 12.984 19.2681C13.7193 20.2235 14.5021 21.1193 15.3326 21.9555C16.1883 22.8209 17.1126 23.6257 18.1054 24.37C19.0982 25.1142 20.1994 25.8252 21.409 26.5031L24.6411 23.2377C24.8719 22.9868 25.1167 22.8248 25.3753 22.7517C25.634 22.6786 25.9388 22.6656 26.2898 22.7127L29.3724 23.334C29.7827 23.4227 30.1148 23.6243 30.3687 23.9387C30.6225 24.2532 30.7494 24.6137 30.7494 25.0204V28.4878C30.7494 28.9312 30.5988 29.3007 30.2977 29.5963C29.9966 29.8919 29.6203 30.0397 29.1687 30.0397ZM10.296 14.8666L13.1749 12.2185C13.2614 12.1416 13.3191 12.0358 13.348 11.9012C13.3768 11.7666 13.3768 11.6416 13.348 11.5262L12.6628 8.34738C12.6244 8.19353 12.5571 8.07815 12.4609 8.00122C12.3648 7.9243 12.2398 7.88583 12.0859 7.88583H9.0268C8.9018 7.88583 8.80324 7.9243 8.73111 8.00122C8.65901 8.07815 8.62296 8.1743 8.62296 8.28967C8.63641 9.2993 8.79074 10.3656 9.08594 11.4887C9.38114 12.6118 9.7845 13.7378 10.296 14.8666ZM22.7403 27.1378C23.7316 27.6397 24.8024 28.0108 25.9527 28.2512C27.1031 28.4916 28.1058 28.6204 28.9609 28.6378C29.0763 28.6378 29.1725 28.5993 29.2494 28.5224C29.3263 28.4455 29.3648 28.3493 29.3648 28.2339V25.2224C29.3648 25.0685 29.3263 24.9435 29.2494 24.8474C29.1725 24.7512 29.0571 24.6839 28.9032 24.6454L26.1744 24.0584C26.059 24.0296 25.9581 24.0296 25.8715 24.0584C25.785 24.0873 25.6936 24.145 25.5975 24.2315L22.7403 27.1378Z" fill="white"/>
</g>
</svg>
