<svg width="151" height="43" viewBox="0 0 151 43" fill="none" xmlns="http://www.w3.org/2000/svg">
<path fill-rule="evenodd" clip-rule="evenodd" d="M1.61758 13.7724C1.61758 13.7724 -0.805265 19.0155 0.279466 24.4393C0.279466 24.4393 2.59352 19.0517 3.56979 18.22C3.56979 18.22 3.09969 16.5568 3.46129 16.1229L1.61758 13.7724ZM19.9135 10.9321C19.9135 10.9321 22.0831 16.2113 26.9283 12.6677L31.629 19.6104C31.629 19.6104 30.5805 21.3097 30.472 22.4307C30.472 22.4307 19.516 22.25 12.4289 18.3811C12.4289 18.3811 12.7905 16.067 12.1396 14.946C12.1396 14.946 14.2006 13.0296 19.9135 10.9321ZM9.24646 21.3464C9.24646 21.3464 16.1889 26.0469 22.9868 26.1193C22.9868 26.1193 16.7676 30.5304 13.8749 41.161C13.8749 41.161 5.26918 38.1959 1.58095 29.5902C1.58095 29.5902 3.67801 22.5755 5.9199 20.9845C5.9199 20.9845 7.11313 21.6354 9.24646 21.3464ZM30.9418 26.0473C30.9418 26.0473 21.1067 30.2418 17.2015 42.3188C17.2015 42.3188 26.6028 44.7053 35.3532 37.4735C35.3532 37.4735 35.9679 30.9286 34.9916 27.7105C34.9916 27.7105 32.569 28.3614 30.9418 26.0473ZM39.4388 23.3183L42.5123 21.3295C42.5123 21.3295 42.6933 28.8865 38.535 33.6595C38.535 33.6595 38.5712 27.5848 38.2096 26.1384C38.2096 26.1384 39.24 25.2344 39.4388 23.3183ZM29.3867 9.86746C29.3867 9.86746 35.5337 9.61432 40.1258 11.3861C40.1258 11.3861 41.8252 15.0744 42.3676 17.7501C42.3676 17.7501 39.3664 17.5693 35.6782 18.871C35.6782 18.871 32.6047 12.5794 29.3867 9.86746ZM12.1751 2.34641C12.1751 2.34641 26.8556 -4.95777 37.9925 8.0594C37.9925 8.0594 30.833 6.0708 27.6149 6.50466C27.6149 6.50466 25.156 3.50349 22.408 4.98598C22.408 4.98598 17.4182 1.80406 12.1751 2.34641ZM2.70183 11.133C2.70183 11.133 5.81144 5.96234 8.66796 4.37132C8.66796 4.37132 14.5618 4.2991 19.8048 7.40867C19.8048 7.40867 13.3686 9.03585 9.21037 12.507C9.21037 12.507 6.32736 11.9618 4.65437 13.7364L2.70183 11.133Z" fill="#005176"/>
<path fill-rule="evenodd" clip-rule="evenodd" d="M48.9859 2.49427H63.6577V3.62808C60.0816 3.4691 59.1216 5.24945 59.1216 8.46557V18.8552H64.6753L53.5673 23.9928V8.30365C53.5673 5.2721 52.556 3.3009 48.9844 3.6285L48.9859 2.49427ZM139.932 21.19L145.439 24.0133V8.33613C145.439 5.05045 146.509 3.49948 150.079 3.68378V2.36483H135.407L135.384 3.66056C138.747 3.40822 140.056 5.02636 140.031 8.24347L139.932 21.19ZM102.554 2.39924H134.674V13.5534H133.262C131.455 1.32295 114.006 1.17489 111.278 13.7386L104.011 13.1368L106.085 7.53971C106.988 5.09998 105.108 3.45512 102.561 3.67104L102.554 2.39924ZM69.7185 2.35645H92.1657V3.76815C89.553 3.58077 87.6518 4.2115 88.8658 7.101L91.4713 13.3025L85.6629 13.8347C84.3 10.069 82.7443 6.97856 81.0112 4.50873C81.0112 4.50873 78.8355 5.13398 79.6686 14.946L74.2305 15.9642L74.2299 7.52391C74.2299 4.71192 72.6218 3.54928 69.7232 3.60666L69.7185 2.35645Z" fill="#2CB9BF"/>
<path fill-rule="evenodd" clip-rule="evenodd" d="M53.5527 26.607C82.9388 9.82676 123.023 14.2443 145.47 26.422V34.2988C145.47 37.274 147.041 38.8788 150.099 38.4786V39.7513H132.788C117.372 39.7513 104.243 40.3621 104.465 21.0526L97.1521 40.4451H96.2264L87.0623 19.3862L79.7497 20.5895V33.0029C79.7497 36.5243 79.9099 38.4066 84.2615 38.5938V39.7508H69.6361V38.455C73.4558 38.6176 74.1719 37.1485 74.1719 33.7434V23.5519H68.1088L59.0602 26.8376V34.923C59.0602 37.5869 61.3387 38.6678 63.711 38.5004V39.8657H49.0156V38.4999C51.5956 38.4261 53.5808 37.8784 53.5734 34.8999L53.5527 26.607ZM110.709 19.3945C110.709 19.3945 124.825 20.7831 140.006 27.1238V33.6729C140.006 37.426 138.858 38.3319 135.306 38.6064C120.5 39.7504 109.242 37.7824 110.709 19.3945ZM92.7982 18.9784H102.842L98.1671 30.9193L92.7982 18.9784Z" fill="#00517C"/>
</svg>
