<svg width="176" height="175" viewBox="0 0 176 175" fill="none" xmlns="http://www.w3.org/2000/svg">
<g id="Jio" filter="url(#filter0_dd_995_8251)">
<rect x="12.95" y="0.369922" width="150.1" height="150.1" rx="10.05" stroke="#F0F2F5" stroke-width="0.1" shape-rendering="crispEdges"/>
<rect id="apple_icon.jpeg" x="13.5" y="0.919922" width="149" height="149" rx="9.5" fill="white" stroke="#F0F2F5"/>
<path id="path28" d="M34 59.08H142V91.48H34V59.08Z" fill="#FFC915"/>
<path id="path30" d="M78.5765 68.7309C80.2685 68.7309 81.9005 69.3039 83.1365 70.3179V68.9619H85.4555V83.7189H83.1365V82.3689C81.9215 83.3769 80.2895 83.9469 78.5765 83.9469C76.4765 83.9469 74.5655 83.1699 73.1975 81.7599C71.8415 80.3679 71.0975 78.4479 71.0975 76.3509C71.0975 74.2509 71.8445 72.3249 73.1975 70.9269C74.5685 69.5109 76.4795 68.7309 78.5765 68.7309ZM62.5235 68.6769C64.4225 68.6769 66.1445 69.3699 67.3775 70.6329C68.6885 71.9769 69.3875 73.8639 69.4025 76.0959V76.8549H57.4595C57.6035 79.6269 59.7185 81.6849 62.4695 81.6849C64.4435 81.6849 65.8565 80.8419 66.9185 79.0329L67.0476 78.8139L69.0576 80.1069L68.9405 80.3079C67.5785 82.6509 65.3405 83.8899 62.4665 83.8899C58.1315 83.8899 55.1045 80.7669 55.1045 76.2969C55.1045 71.8809 58.2245 68.6769 62.5235 68.6769ZM124.213 68.6769C126.112 68.6769 127.834 69.3699 129.067 70.6329C130.378 71.9769 131.077 73.8639 131.092 76.0959V76.8549H119.149C119.293 79.6269 121.408 81.6849 124.159 81.6849C126.133 81.6849 127.546 80.8419 128.608 79.0329L128.737 78.8139L130.747 80.1069L130.63 80.3079C129.268 82.6509 127.03 83.8899 124.156 83.8899C119.821 83.8899 116.794 80.7669 116.791 76.2969C116.791 71.8809 119.914 68.6769 124.213 68.6769ZM54.2105 68.9319V71.1369H47.4905V83.7159H45.1445V68.9319H54.2105ZM109.345 68.7309C112.705 68.7309 114.793 71.0379 114.793 74.7519V83.6889H112.447V74.7519C112.447 72.4329 111.118 70.9359 109.06 70.9359C106.414 70.9359 105.472 72.7599 105.472 74.4669V83.6919H103.126V74.7549C103.126 72.3999 101.839 70.9389 99.7655 70.9389C98.0585 70.9389 96.2345 72.2649 96.2345 74.2389V83.6829H93.8885V68.9289H96.2345V70.3599C97.2035 69.3039 98.5835 68.7309 100.195 68.7309C102.58 68.7309 103.885 69.9369 104.587 71.0799C105.655 69.5829 107.365 68.7309 109.345 68.7309ZM90.8435 64.5759V83.6889H88.4975V64.5759H90.8435ZM78.4595 71.0799C75.6005 71.0799 73.4435 73.3479 73.4435 76.3539C73.4435 79.3449 75.6005 81.5979 78.4595 81.6009C81.4265 81.6009 83.4185 79.4919 83.4185 76.3539C83.4185 73.2009 81.4265 71.0799 78.4595 71.0799ZM62.4695 70.8789C60.1055 70.8789 58.1315 72.4509 57.5675 74.7369H67.0175C66.6035 72.4179 64.8095 70.8789 62.4695 70.8789ZM124.156 70.8789C121.792 70.8789 119.818 72.4509 119.254 74.7369H128.704C128.29 72.4179 126.496 70.8789 124.156 70.8789Z" fill="#111111"/>
</g>
<defs>
<filter id="filter0_dd_995_8251" x="0.900391" y="0.319946" width="174.199" height="174.2" filterUnits="userSpaceOnUse" color-interpolation-filters="sRGB">
<feFlood flood-opacity="0" result="BackgroundImageFix"/>
<feColorMatrix in="SourceAlpha" type="matrix" values="0 0 0 0 0 0 0 0 0 0 0 0 0 0 0 0 0 0 127 0" result="hardAlpha"/>
<feMorphology radius="2" operator="erode" in="SourceAlpha" result="effect1_dropShadow_995_8251"/>
<feOffset dy="4"/>
<feGaussianBlur stdDeviation="3"/>
<feComposite in2="hardAlpha" operator="out"/>
<feColorMatrix type="matrix" values="0 0 0 0 0.0627451 0 0 0 0 0.0941176 0 0 0 0 0.156863 0 0 0 0.03 0"/>
<feBlend mode="normal" in2="BackgroundImageFix" result="effect1_dropShadow_995_8251"/>
<feColorMatrix in="SourceAlpha" type="matrix" values="0 0 0 0 0 0 0 0 0 0 0 0 0 0 0 0 0 0 127 0" result="hardAlpha"/>
<feMorphology radius="4" operator="erode" in="SourceAlpha" result="effect2_dropShadow_995_8251"/>
<feOffset dy="12"/>
<feGaussianBlur stdDeviation="8"/>
<feComposite in2="hardAlpha" operator="out"/>
<feColorMatrix type="matrix" values="0 0 0 0 0.0627451 0 0 0 0 0.0941176 0 0 0 0 0.156863 0 0 0 0.08 0"/>
<feBlend mode="normal" in2="effect1_dropShadow_995_8251" result="effect2_dropShadow_995_8251"/>
<feBlend mode="normal" in="SourceGraphic" in2="effect2_dropShadow_995_8251" result="shape"/>
</filter>
</defs>
</svg>
