<svg width="22" height="27" viewBox="0 0 22 27" fill="none" xmlns="http://www.w3.org/2000/svg">
<path d="M10.9876 12.8018C11.6382 12.8018 12.195 12.5701 12.658 12.1068C13.121 11.6435 13.3525 11.0865 13.3525 10.4359C13.3525 9.78527 13.1198 9.22847 12.6545 8.76547C12.1892 8.30249 11.6298 8.071 10.9764 8.071C10.3229 8.071 9.76714 8.30367 9.30897 8.76899C8.85079 9.23432 8.62171 9.79369 8.62171 10.4471C8.62171 11.1005 8.85337 11.6563 9.31669 12.1145C9.78002 12.5727 10.337 12.8018 10.9876 12.8018ZM10.9799 24.7167C13.7611 22.2644 15.9612 19.7806 17.5802 17.2654C19.1992 14.7502 20.0087 12.5758 20.0087 10.7422C20.0087 8.02582 19.153 5.78327 17.4416 4.01452C15.7301 2.24577 13.5753 1.36139 10.9772 1.36139C8.37898 1.36139 6.22508 2.24577 4.51546 4.01452C2.80586 5.78327 1.95106 8.02582 1.95106 10.7422C1.95106 12.5758 2.76057 14.7502 4.37959 17.2654C5.99862 19.7806 8.19872 22.2644 10.9799 24.7167ZM10.9799 26.5686C7.51932 23.4696 4.91859 20.5991 3.17772 17.9573C1.43684 15.3155 0.566406 12.9128 0.566406 10.7492C0.566406 7.648 1.57723 5.08212 3.59888 3.05152C5.62051 1.02092 8.08084 0.00561523 10.9799 0.00561523C13.8789 0.00561523 16.3393 1.02092 18.3609 3.05152C20.3826 5.08212 21.3934 7.648 21.3934 10.7492C21.3934 12.9128 20.5229 15.3155 18.7821 17.9573C17.0412 20.5991 14.4405 23.4696 10.9799 26.5686Z" fill="white"/>
</svg>
