<svg width="37" height="37" viewBox="0 0 37 37" fill="none" xmlns="http://www.w3.org/2000/svg">
<mask id="mask0_644_2163" style="mask-type:alpha" maskUnits="userSpaceOnUse" x="0" y="0" width="37" height="37">
<rect x="0.980469" y="0.270508" width="36" height="36" fill="#D9D9D9"/>
</mask>
<g mask="url(#mask0_644_2163)">
<path d="M18.9876 17.8018C19.6382 17.8018 20.195 17.5701 20.658 17.1068C21.121 16.6435 21.3525 16.0865 21.3525 15.4359C21.3525 14.7853 21.1198 14.2285 20.6545 13.7655C20.1892 13.3025 19.6298 13.071 18.9764 13.071C18.3229 13.071 17.7671 13.3037 17.309 13.769C16.8508 14.2343 16.6217 14.7937 16.6217 15.4471C16.6217 16.1005 16.8534 16.6563 17.3167 17.1145C17.78 17.5727 18.337 17.8018 18.9876 17.8018ZM18.9799 29.7167C21.7611 27.2644 23.9612 24.7806 25.5802 22.2654C27.1992 19.7502 28.0087 17.5758 28.0087 15.7422C28.0087 13.0258 27.153 10.7833 25.4416 9.01452C23.7301 7.24577 21.5753 6.36139 18.9772 6.36139C16.379 6.36139 14.2251 7.24577 12.5155 9.01452C10.8059 10.7833 9.95106 13.0258 9.95106 15.7422C9.95106 17.5758 10.7606 19.7502 12.3796 22.2654C13.9986 24.7806 16.1987 27.2644 18.9799 29.7167ZM18.9799 31.5686C15.5193 28.4696 12.9186 25.5991 11.1777 22.9573C9.43684 20.3155 8.56641 17.9128 8.56641 15.7492C8.56641 12.648 9.57723 10.0821 11.5989 8.05152C13.6205 6.02092 16.0808 5.00562 18.9799 5.00562C21.8789 5.00562 24.3393 6.02092 26.3609 8.05152C28.3826 10.0821 29.3934 12.648 29.3934 15.7492C29.3934 17.9128 28.5229 20.3155 26.7821 22.9573C25.0412 25.5991 22.4405 28.4696 18.9799 31.5686Z" fill="white"/>
</g>
</svg>
