<svg width="151" height="43" viewBox="0 0 151 43" fill="none" xmlns="http://www.w3.org/2000/svg">
<path fill-rule="evenodd" clip-rule="evenodd" d="M1.61758 13.739C1.61758 13.739 -0.805265 18.9821 0.279466 24.4058C0.279466 24.4058 2.59352 19.0182 3.56979 18.1866C3.56979 18.1866 3.09969 16.5234 3.46129 16.0894L1.61758 13.739ZM19.9135 10.8987C19.9135 10.8987 22.0831 16.1778 26.9283 12.6343L31.629 19.5769C31.629 19.5769 30.5805 21.2762 30.472 22.3972C30.472 22.3972 19.516 22.2166 12.4289 18.3476C12.4289 18.3476 12.7905 16.0336 12.1396 14.9126C12.1396 14.9126 14.2006 12.9961 19.9135 10.8987ZM9.24646 21.3129C9.24646 21.3129 16.1889 26.0135 22.9868 26.0858C22.9868 26.0858 16.7676 30.4969 13.8749 41.1276C13.8749 41.1276 5.26918 38.1625 1.58095 29.5567C1.58095 29.5567 3.67801 22.542 5.9199 20.9511C5.9199 20.9511 7.11313 21.602 9.24646 21.3129ZM30.9418 26.0139C30.9418 26.0139 21.1067 30.2083 17.2015 42.2853C17.2015 42.2853 26.6028 44.6718 35.3532 37.4401C35.3532 37.4401 35.9679 30.8951 34.9916 27.6771C34.9916 27.6771 32.569 28.3279 30.9418 26.0139ZM39.4388 23.2849L42.5123 21.2961C42.5123 21.2961 42.6933 28.853 38.535 33.626C38.535 33.626 38.5712 27.5514 38.2096 26.105C38.2096 26.105 39.24 25.201 39.4388 23.2849ZM29.3867 9.83402C29.3867 9.83402 35.5337 9.58087 40.1258 11.3527C40.1258 11.3527 41.8252 15.0409 42.3676 17.7167C42.3676 17.7167 39.3664 17.5359 35.6782 18.8376C35.6782 18.8376 32.6047 12.546 29.3867 9.83402ZM12.1751 2.31297C12.1751 2.31297 26.8556 -4.99121 37.9925 8.02595C37.9925 8.02595 30.833 6.03735 27.6149 6.47121C27.6149 6.47121 25.156 3.47004 22.408 4.95253C22.408 4.95253 17.4182 1.77061 12.1751 2.31297ZM2.70183 11.0996C2.70183 11.0996 5.81144 5.92889 8.66796 4.33787C8.66796 4.33787 14.5618 4.26565 19.8048 7.37523C19.8048 7.37523 13.3686 9.0024 9.21037 12.4736C9.21037 12.4736 6.32736 11.9284 4.65437 13.703L2.70183 11.0996Z" fill="white"/>
<path fill-rule="evenodd" clip-rule="evenodd" d="M48.9859 2.46082H63.6577V3.59464C60.0816 3.43565 59.1216 5.216 59.1216 8.43212V18.8218H64.6753L53.5673 23.9593V8.27021C53.5673 5.23866 52.556 3.26745 48.9844 3.59506L48.9859 2.46082ZM139.932 21.1566L145.439 23.9799V8.30268C145.439 5.017 146.509 3.46603 150.079 3.65033V2.33138H135.407L135.384 3.62711C138.747 3.37478 140.056 4.99291 140.031 8.21002L139.932 21.1566ZM102.554 2.36579H134.674V13.52H133.262C131.455 1.28951 114.006 1.14144 111.278 13.7051L104.011 13.1034L106.085 7.50626C106.988 5.06654 105.108 3.42168 102.561 3.63759L102.554 2.36579ZM69.7185 2.323H92.1657V3.73471C89.553 3.54732 87.6518 4.17805 88.8658 7.06755L91.4713 13.269L85.6629 13.8012C84.3 10.0356 82.7443 6.94511 81.0112 4.47528C81.0112 4.47528 78.8355 5.10054 79.6686 14.9125L74.2305 15.9307L74.2299 7.49046C74.2299 4.67847 72.6218 3.51583 69.7232 3.57321L69.7185 2.323Z" fill="white"/>
<path fill-rule="evenodd" clip-rule="evenodd" d="M53.5527 26.5735C82.9388 9.79331 123.023 14.2108 145.47 26.3885V34.2654C145.47 37.2406 147.041 38.8454 150.099 38.4452V39.7178H132.788C117.372 39.7178 104.243 40.3286 104.465 21.0191L97.1521 40.4116H96.2264L87.0623 19.3527L79.7497 20.556V32.9694C79.7497 36.4909 79.9099 38.3731 84.2615 38.5603V39.7174H69.6361V38.4215C73.4558 38.5841 74.1719 37.115 74.1719 33.71V23.5185H68.1088L59.0602 26.8041V34.8895C59.0602 37.5535 61.3387 38.6344 63.711 38.467V39.8323H49.0156V38.4664C51.5956 38.3927 53.5808 37.8449 53.5734 34.8665L53.5527 26.5735ZM110.709 19.3611C110.709 19.3611 124.825 20.7496 140.006 27.0903V33.6395C140.006 37.3925 138.858 38.2985 135.306 38.573C120.5 39.7169 109.242 37.749 110.709 19.3611ZM92.7982 18.9449H102.842L98.1671 30.8858L92.7982 18.9449Z" fill="white"/>
</svg>
