<svg width="109" height="24" viewBox="0 0 109 24" fill="none" xmlns="http://www.w3.org/2000/svg">
<g id="infinix_mobility_logo.svg" clip-path="url(#clip0_879_8421)">
<g id="Group">
<path id="Vector" d="M70.9883 7.29382H62.1169C62.1169 7.29382 60.5084 7.29382 59.9235 8.45896V7.29382H55.959V23.7353H59.9235V13.1519C59.9235 11.8573 60.9796 10.8054 62.2794 10.8054H69.786C71.0858 10.8054 72.1419 11.8573 72.1419 13.1519V23.7353H76.0252V11.9706C76.0414 11.9706 75.749 7.29382 70.9883 7.29382Z" fill="black"/>
<path id="Vector_2" d="M5.34535 2.55233H1.38086V23.7353H5.34535V2.55233Z" fill="black"/>
<path id="Vector_3" d="M51.928 7.27765H47.9473V23.7515H51.928V7.27765Z" fill="black"/>
<path id="Vector_4" d="M84.0172 7.29382H80.0527V23.7353H84.0172V7.29382Z" fill="black"/>
<path id="Vector_5" d="M24.3887 7.29382H15.5173C15.5173 7.29382 13.9088 7.29382 13.3239 8.45896V7.29382H9.35938V23.7353H13.3239V13.1519C13.3239 11.8573 14.38 10.8054 15.6798 10.8054H23.2026C24.5024 10.8054 25.5586 11.8573 25.5586 13.1519V23.7353H29.4418V11.9706C29.4581 11.9706 29.1656 7.29382 24.3887 7.29382Z" fill="black"/>
<path id="Vector_6" d="M51.928 0.756062H47.9473V4.17058H51.928V0.756062Z" fill="black"/>
<path id="Vector_7" d="M84.0172 0.756062H80.0527V4.17058H84.0172V0.756062Z" fill="black"/>
<path id="Vector_8" d="M107.887 7.29382H102.931L97.2283 13.0386L91.5253 7.29382H86.5859L94.7424 15.5307L86.5859 23.7353H91.5903L97.2283 18.039L102.883 23.7353H107.887L99.7143 15.5307L107.887 7.29382Z" fill="black"/>
<path id="Vector_9" d="M39.1256 4.57515C39.3693 4.31623 39.6943 4.17058 40.0842 4.17058H44.5199V0.756062H41.0104C40.9616 0.772244 40.4417 0.739879 39.743 0.772244C39.7105 0.772244 39.6943 0.772244 39.678 0.772244C38.2157 0.772244 36.8346 1.30627 35.9572 2.22868C35.2098 3.00544 34.8361 4.08967 34.8361 4.94735C34.8361 6.63034 34.8361 7.29382 34.8361 7.29382H29.6855C29.6855 7.29382 31.0991 7.81166 32.074 10.8054H34.8361V23.7353H38.7519V10.8054H44.5037V7.29382H41.5628H38.7519V5.85357C38.7519 5.75648 38.7519 5.65938 38.7681 5.56229C38.7681 5.52992 38.7519 5.49756 38.7519 5.48137C38.7519 5.20627 38.8494 4.94735 38.9956 4.73697C39.0444 4.67224 39.0769 4.6237 39.1256 4.57515Z" fill="black"/>
</g>
</g>
<defs>
<clipPath id="clip0_879_8421">
<rect width="108" height="23.4" fill="white" transform="translate(0.570312 0.513309)"/>
</clipPath>
</defs>
</svg>
