<svg width="109" height="42" viewBox="0 0 109 42" fill="none" xmlns="http://www.w3.org/2000/svg">
<g id="dyson_logo.svg" clip-path="url(#clip0_879_8463)">
<g id="Group">
<path id="Vector" d="M21.1444 0.513306H15.7658V10.4705C13.9729 10.4705 12.0092 10.4705 10.8994 10.4705C5.26457 10.4705 0.654297 15.0662 0.654297 20.6831C0.654297 26.3 5.26457 30.8956 10.8994 30.8956C16.5341 30.8956 21.1444 26.3 21.1444 20.6831C21.1444 17.8746 21.1444 10.4705 21.1444 10.4705V0.513306ZM15.6804 20.6831C15.6804 23.4064 13.4606 25.5341 10.814 25.5341C8.08196 25.5341 5.94758 23.3213 5.94758 20.6831C5.94758 17.9597 8.16734 15.8321 10.814 15.8321H15.6804V20.6831ZM65.3689 20.6831C65.3689 15.0662 69.9792 10.4705 75.614 10.4705C81.2488 10.4705 85.859 15.0662 85.859 20.6831C85.859 26.3 81.2488 30.8956 75.614 30.8956C69.9792 30.8956 65.3689 26.3851 65.3689 20.6831ZM75.614 25.6192C78.346 25.6192 80.4804 23.4064 80.4804 20.7682C80.4804 18.0449 78.2606 15.9172 75.614 15.9172C72.882 15.9172 70.7476 18.13 70.7476 20.7682C70.7476 23.4064 72.9673 25.6192 75.614 25.6192ZM103.19 20.6831C103.19 18.0449 101.056 15.8321 98.3239 15.8321C95.6772 15.8321 93.4575 17.9597 93.4575 20.6831C93.4575 21.9597 93.4575 30.4701 93.4575 30.4701C90.7254 30.4701 88.0788 30.4701 88.0788 30.4701C88.0788 30.4701 88.0788 23.4915 88.0788 20.6831C88.0788 15.0662 92.6891 10.4705 98.3239 10.4705C103.959 10.4705 108.569 15.0662 108.569 20.6831C108.569 23.5767 108.569 30.4701 108.569 30.4701C108.569 30.4701 105.922 30.4701 103.19 30.4701C103.19 30.4701 103.19 22.0448 103.19 20.6831ZM60.844 19.9172C65.8812 22.5554 63.4053 27.3213 62.8077 28.0021C59.7341 31.8318 54.1847 30.8105 54.1847 30.8105C50.6843 30.2148 48.4646 29.1085 46.6717 27.7468L49.233 24.1724C50.5136 25.1085 54.2701 26.7255 57.0875 26.0447C58.795 25.7043 59.1365 24.4277 58.0266 23.832C56.6606 23.066 52.3065 22.5554 49.7452 20.9384C45.5618 18.3002 47.6962 14.13 47.6962 14.13C50.0867 9.7046 55.9776 10.3854 55.9776 10.3854C59.478 10.6408 61.8685 11.8322 62.9784 12.6833L60.4171 16.1726C57.9413 15.0662 55.2092 14.7258 53.5017 15.1513C52.2211 15.4917 51.965 16.4279 52.7333 16.9385C54.0994 18.0449 58.2828 18.6406 60.844 19.9172ZM27.5476 34.47C27.8037 34.6403 30.2796 36.3423 32.7555 36.3423C38.6464 36.4274 38.9879 30.385 38.9879 28.9382C37.878 30.1297 35.5729 30.8956 34.1215 30.8956C28.4867 30.8956 23.8764 26.4702 23.8764 20.8533C23.8764 18.0449 23.8764 10.8961 23.8764 10.8961C23.8764 10.8961 26.5231 10.8961 29.2551 10.8961C29.2551 10.8961 29.2551 19.6618 29.2551 20.8533C29.2551 23.4915 31.3895 25.7043 34.1215 25.7043C36.7681 25.7043 38.9879 23.5767 38.9879 20.8533C38.9879 19.7469 38.9879 10.8961 38.9879 10.8961C41.7199 10.8961 44.3666 10.8961 44.3666 10.8961V20.8533C44.3666 29.7042 44.7934 38.8104 36.1705 40.8529C29.682 42.3848 25.0717 38.2998 24.8156 38.1295L27.5476 34.47Z" fill="black"/>
</g>
</g>
<defs>
<clipPath id="clip0_879_8463">
<rect width="108" height="40.68" fill="white" transform="translate(0.568359 0.513306)"/>
</clipPath>
</defs>
</svg>
