<svg width="109" height="27" viewBox="0 0 109 27" fill="none" xmlns="http://www.w3.org/2000/svg">
<g id="oppo_logo.svg" clip-path="url(#clip0_879_8388)">
<g id="Group">
<path id="Vector" fill-rule="evenodd" clip-rule="evenodd" d="M13.3781 16.804C7.93325 16.7424 4.40646 14.1556 4.40646 10.2446C4.40646 6.33359 7.93325 3.7468 13.3781 3.68521C18.823 3.7468 22.3497 6.33359 22.3497 10.2446C22.3497 14.1556 18.823 16.7732 13.3781 16.804ZM13.5637 0.513306C13.5637 0.513306 13.44 0.513306 13.409 0.513306C13.3472 0.513306 13.2544 0.513306 13.2544 0.513306C5.76768 0.636486 0.570312 4.63986 0.570312 10.2446C0.570312 15.8493 5.76768 19.8527 13.2234 19.9759C13.2234 19.9759 13.3472 19.9759 13.3781 19.9759C13.44 19.9759 13.5328 19.9759 13.5328 19.9759C20.9885 19.8835 26.1859 15.8493 26.1859 10.2446C26.1859 4.63986 20.9885 0.636486 13.5637 0.513306Z" fill="#046A38"/>
<path id="Vector_2" fill-rule="evenodd" clip-rule="evenodd" d="M95.7609 16.804C90.3161 16.7424 86.7893 14.1556 86.7893 10.2446C86.7893 6.33359 90.3161 3.7468 95.7609 3.68521C101.206 3.7468 104.733 6.33359 104.733 10.2446C104.733 14.1556 101.206 16.7732 95.7609 16.804ZM95.9156 0.513306C95.9156 0.513306 95.7919 0.513306 95.7609 0.513306C95.6991 0.513306 95.6062 0.513306 95.6062 0.513306C88.1505 0.636486 82.9531 4.63986 82.9531 10.2446C82.9531 15.8493 88.1505 19.8527 95.6062 19.9759C95.6062 19.9759 95.73 19.9759 95.7609 19.9759C95.8228 19.9759 95.9156 19.9759 95.9156 19.9759C103.371 19.8527 108.569 15.8493 108.569 10.2446C108.569 4.63986 103.371 0.636486 95.9156 0.513306Z" fill="#046A38"/>
<path id="Vector_3" fill-rule="evenodd" clip-rule="evenodd" d="M68.3508 16.804C62.9059 16.7424 59.3791 14.1556 59.3791 10.2446C59.3791 6.33359 62.9059 3.7468 68.3508 3.68521C73.7956 3.7468 77.3224 6.33359 77.3224 10.2446C77.3224 14.1556 73.7956 16.7732 68.3508 16.804ZM68.5054 0.513306C68.5054 0.513306 68.3817 0.513306 68.3508 0.513306C68.2889 0.513306 68.1961 0.513306 68.1961 0.513306C64.6384 0.574896 61.6066 1.49875 59.4101 3.06931V1.43716H55.543V26.0733H59.4101V17.4199C61.6066 18.9904 64.6693 19.9451 68.1961 19.9759C68.1961 19.9759 68.3198 19.9759 68.3508 19.9759C68.4126 19.9759 68.5054 19.9759 68.5054 19.9759C75.9612 19.8527 81.1586 15.8493 81.1586 10.2446C81.1586 4.63986 75.9612 0.636486 68.5054 0.513306Z" fill="#046A38"/>
<path id="Vector_4" fill-rule="evenodd" clip-rule="evenodd" d="M40.8817 16.804C35.4368 16.7424 31.9101 14.1556 31.9101 10.2446C31.9101 6.33359 35.4368 3.7468 40.8817 3.68521C46.3266 3.7468 49.8533 6.33359 49.8533 10.2446C49.8533 14.1556 46.3266 16.7732 40.8817 16.804ZM41.0364 0.513306C41.0364 0.513306 40.9126 0.513306 40.8817 0.513306C40.8198 0.513306 40.727 0.513306 40.727 0.513306C37.1693 0.574896 34.1375 1.49875 31.941 3.06931V1.43716H28.043V26.0733H31.9101V17.4199C34.1066 18.9904 37.1693 19.9451 40.6961 19.9759C40.6961 19.9759 40.8198 19.9759 40.8508 19.9759C40.9126 19.9759 41.0054 19.9759 41.0054 19.9759C48.4612 19.8527 53.6586 15.8493 53.6586 10.2446C53.6586 4.63986 48.4921 0.636486 41.0364 0.513306Z" fill="#046A38"/>
</g>
</g>
<defs>
<clipPath id="clip0_879_8388">
<rect width="108" height="25.56" fill="white" transform="translate(0.570312 0.513306)"/>
</clipPath>
</defs>
</svg>
