<svg width="109" height="26" viewBox="0 0 109 26" fill="none" xmlns="http://www.w3.org/2000/svg">
<g id="castrol_logo.svg" clip-path="url(#clip0_767_3790)">
<g id="Group">
<g id="Group_2">
<g id="Group_3">
<path id="Vector" d="M11.9162 11.224H25.8046C25.6633 10.4358 25.475 9.64758 25.1926 8.85934H12.4341C11.3983 8.85934 11.0217 8.4884 11.1629 7.6538L12.5282 0.513306C12.1987 0.513306 11.822 0.559673 11.4925 0.606039L9.46805 8.2102C8.9031 10.3431 9.60929 11.224 11.9162 11.224Z" fill="white"/>
<path id="Vector_2" d="M11.1627 14.9334C7.44343 14.9334 5.74858 12.8933 6.87848 9.69394L10.0328 0.930603C9.65616 1.02334 9.27953 1.16244 8.90289 1.30154L4.94823 10.1576C3.11214 14.377 5.41902 17.2517 10.8331 17.2517H25.1923C25.4748 16.5099 25.6631 15.7216 25.8044 14.887L11.1627 14.9334Z" fill="white"/>
<path id="Vector_3" d="M12.4344 8.85934H25.24C23.4981 3.99082 18.7902 0.513306 13.2348 0.513306C12.9994 0.513306 12.764 0.513306 12.5286 0.513306L11.1633 7.60743C11.0221 8.4884 11.3987 8.85934 12.4344 8.85934Z" fill="#009343"/>
<path id="Vector_4" d="M4.94878 10.1576L8.90344 1.25517C4.05427 3.01711 0.711635 7.5147 0.570397 12.7078C0.523318 26.9424 20.1083 30.4663 25.1929 17.2981H10.8337C5.41957 17.2981 3.11268 14.377 4.94878 10.1576Z" fill="#009343"/>
<path id="Vector_5" d="M11.1631 14.9334H25.8048C25.8989 14.3306 25.946 13.6815 25.946 13.0324C25.946 12.4296 25.8989 11.8268 25.8048 11.2241H11.9164C9.60947 11.2241 8.90328 10.3895 9.46823 8.25659L11.4926 0.65242C10.9748 0.698787 10.504 0.837887 10.0332 0.930621L6.87887 9.69396C5.74896 12.8933 7.44382 14.9334 11.1631 14.9334ZM30.1361 14.1915C30.1361 8.99845 34.0436 5.05727 39.2694 5.05727C42.565 5.05727 45.2014 6.95831 46.2843 9.92579L42.6121 10.9459C42.0471 9.32302 40.6818 8.44205 38.8928 8.44205C35.8797 8.44205 33.667 10.714 33.667 13.867C33.667 16.3244 35.2677 17.9473 37.8571 17.9473C39.599 17.9473 41.1997 17.0199 41.953 15.4434L45.1544 17.0663C43.6478 19.7092 40.7289 21.4248 37.4804 21.4248C33.1021 21.4248 30.1361 18.3182 30.1361 14.1915ZM45.9547 15.5825C45.9547 11.5486 49.062 8.21022 52.8754 8.21022C54.6644 8.21022 55.9826 8.81299 56.83 10.0185L57.4892 8.53479H60.2668L58.9015 21.0538H55.606L55.7943 19.5701C54.6644 20.7756 53.252 21.3784 51.463 21.3784C48.3087 21.4248 45.9547 18.921 45.9547 15.5825ZM56.3592 14.377C56.3592 12.5687 55.041 11.3168 53.1579 11.3168C50.9451 11.3168 49.2973 13.0324 49.2973 15.3043C49.2973 17.1127 50.5214 18.3646 52.4517 18.3646C54.6644 18.3646 56.3592 16.6026 56.3592 14.377ZM73.9198 16.8808L74.4848 11.6877H72.2721L72.6016 8.58115H74.8143L75.0968 6.03097L78.4865 5.05727L78.1099 8.58115H80.9817L80.6522 11.6877H77.7803L77.2154 16.8808C77.1212 17.9009 77.6862 18.2255 78.9573 18.2255C79.2398 18.2255 79.6164 18.1791 79.9931 18.1791L79.6635 21.1002C79.0515 21.1929 78.4865 21.1929 77.9687 21.1929C74.5789 21.1929 73.5903 19.7556 73.9198 16.8808ZM81.3584 21.1002L82.7237 8.58115H85.5014L85.878 10.0649C86.8667 8.90572 88.4203 8.34932 89.9268 8.34932L89.5502 11.6877H89.0323C87.2433 11.6877 85.5955 12.7078 85.3601 14.887L84.701 21.1002H81.3584ZM89.3619 15.5362C89.3619 11.4559 92.6574 8.21022 96.8004 8.21022C100.284 8.21022 102.827 10.7604 102.827 14.0988C102.827 18.1791 99.531 21.4248 95.388 21.4248C91.9041 21.4248 89.3619 18.921 89.3619 15.5362ZM99.531 14.377C99.531 12.6151 98.3069 11.3632 96.4708 11.3632C94.3052 11.3632 92.6574 13.0324 92.6574 15.258C92.6574 17.0199 93.8815 18.2718 95.7176 18.2718C97.8832 18.2718 99.531 16.6026 99.531 14.377ZM103.58 21.1002L105.181 6.03097L108.57 5.05727L106.875 21.1002H103.58ZM60.1256 17.9936L63.4682 16.8808C63.8919 17.9473 64.6923 18.5037 65.8693 18.5037C67.0463 18.5037 67.6583 18.0864 67.6583 17.4836C67.6583 15.6753 61.6321 16.5099 61.6321 12.6151C61.6321 10.0649 63.8449 8.21022 66.905 8.21022C69.0707 8.21022 70.6714 9.46212 71.3305 11.6877L68.1291 12.5687C67.8937 11.5486 67.3287 11.085 66.4342 11.085C65.5397 11.085 64.9748 11.5486 64.9748 12.1514C64.9748 13.9133 71.048 12.8933 71.048 17.0663C71.048 19.6628 68.7882 21.4248 65.3985 21.4248C62.8091 21.4248 60.973 20.2656 60.1256 17.9936Z" fill="#F00023"/>
</g>
</g>
</g>
</g>
<defs>
<clipPath id="clip0_767_3790">
<rect width="108" height="24.9917" fill="white" transform="translate(0.570312 0.513306)"/>
</clipPath>
</defs>
</svg>
