<svg width="109" height="29" viewBox="0 0 109 29" fill="none" xmlns="http://www.w3.org/2000/svg">
<g id="vivo_logo.svg" clip-path="url(#clip0_879_8358)">
<g id="&#230;&#181;&#183;&#229;&#164;&#150;&#228;&#184;&#128;&#230;&#156;&#159;">
<g id="F14-PC-&#232;&#191;&#148;&#229;&#155;&#158;&#233;&#161;&#182;&#233;&#131;&#168;Normal">
<g id="&#231;&#188;&#150;&#231;&#187;&#132;-6">
<g id="vivo">
<g id="vivo-LOGO">
<path id="Fill-1" fill-rule="evenodd" clip-rule="evenodd" d="M98.0678 24.2291H88.7881C83.572 24.2291 83.1079 19.9355 83.1079 18.6201C83.1079 17.3087 83.572 13.0111 88.7881 13.0111H98.0678C103.284 13.0111 103.748 17.3048 103.748 18.6201C103.744 19.9355 103.284 24.2291 98.0678 24.2291ZM98.0678 8.29086H88.7881C79.1466 8.29086 78.2891 16.2027 78.2891 18.6241C78.2891 21.0415 79.1466 28.9573 88.7881 28.9573H98.0678C107.709 28.9573 108.571 21.0454 108.571 18.6241C108.567 16.2027 107.709 8.29086 98.0678 8.29086Z" fill="#415FFF"/>
<path id="Fill-4" fill-rule="evenodd" clip-rule="evenodd" d="M76.4243 8.77276H73.415C72.1287 8.77276 71.8612 8.99396 71.3656 9.73261C70.8699 10.4713 62.2669 23.6603 62.2669 23.6603C61.9916 24.0672 61.7005 24.2291 61.3386 24.2291C60.9767 24.2291 60.6856 24.0632 60.4102 23.6603C60.4102 23.6603 51.8072 10.4713 51.3115 9.73261C50.8159 8.99396 50.5484 8.77276 49.2621 8.77276H46.2528C45.5604 8.77276 45.2457 9.31786 45.6785 9.98146C46.1151 10.6451 55.9533 25.6472 55.9533 25.6472C57.5465 28.0014 58.7187 28.9533 61.3386 28.9533C63.9584 28.9533 65.1267 28.0014 66.7238 25.6472C66.7238 25.6472 76.562 10.6451 76.9987 9.98146C77.4314 9.31786 77.1167 8.77276 76.4243 8.77276Z" fill="#415FFF"/>
<path id="Fill-7" fill-rule="evenodd" clip-rule="evenodd" d="M36.4805 10.0526C36.4805 9.13616 36.8424 8.77276 37.755 8.77276H40.0287C40.9413 8.77276 41.3032 9.13616 41.3032 10.0526V27.6735C41.3032 28.5899 40.9413 28.9533 40.0287 28.9533H37.755C36.8424 28.9533 36.4805 28.5899 36.4805 27.6735V10.0526Z" fill="#415FFF"/>
<path id="Fill-13" fill-rule="evenodd" clip-rule="evenodd" d="M31.5251 8.77276H28.5158C27.2294 8.77276 26.962 8.99396 26.4663 9.73261C25.9707 10.4713 17.3676 23.6603 17.3676 23.6603C17.0923 24.0672 16.8012 24.2291 16.4393 24.2291C16.0774 24.2291 15.7863 24.0632 15.5109 23.6603C15.5109 23.6603 6.9079 10.4713 6.41225 9.73261C5.91661 8.99396 5.64911 8.77276 4.36279 8.77276H1.35744C0.586429 8.77276 0.350406 9.31786 0.783114 9.98146C1.21976 10.6451 11.058 25.6472 11.058 25.6472C12.6511 28.0014 13.8234 28.9533 16.4432 28.9533C19.0631 28.9533 20.2314 28.0014 21.8285 25.6472C21.8285 25.6472 31.6667 10.6451 32.1033 9.98146C32.536 9.31786 32.3 8.77276 31.5251 8.77276Z" fill="#415FFF"/>
<path id="Fill-10" fill-rule="evenodd" clip-rule="evenodd" d="M36.2734 4.73981C35.5339 3.99721 35.5339 3.40471 36.2734 2.66211L37.8587 1.07026C38.5982 0.327656 39.1883 0.327656 39.9278 1.07026L41.5131 2.66211C42.2526 3.40471 42.2526 3.99721 41.5131 4.73981L39.9278 6.33166C39.1883 7.07425 38.5982 7.07425 37.8587 6.33166L36.2734 4.73981Z" fill="#415FFF"/>
</g>
</g>
</g>
</g>
</g>
</g>
<defs>
<clipPath id="clip0_879_8358">
<rect width="108" height="28.44" fill="white" transform="translate(0.570312 0.513306)"/>
</clipPath>
</defs>
</svg>
