<svg width="109" height="18" viewBox="0 0 109 18" fill="none" xmlns="http://www.w3.org/2000/svg">
<g id="panasonic_usa_logo.svg" clip-path="url(#clip0_879_8445)">
<path id="Vector" d="M8.00636 11.8426H5.05076V8.05384H6.97136C7.33496 8.05384 7.64456 8.04481 8.00816 8.02494C8.24936 8.01572 8.48525 7.95119 8.69773 7.83631C8.91022 7.72142 9.09365 7.55923 9.23396 7.36218C9.38942 7.15657 9.48869 6.9138 9.52196 6.65789C9.55436 6.43395 9.55796 6.24253 9.53636 6.01499C9.49856 5.60995 9.3109 5.23381 9.01037 4.9607C8.70984 4.6876 8.31824 4.53735 7.91276 4.53958H5.05076V16.8232H0.160156V0.653305H8.15216C8.47076 0.653305 8.73896 0.658723 9.05756 0.676782C11.1798 0.790553 12.9276 1.97341 13.8258 3.9039C14.2847 4.85858 14.4602 5.92552 14.3316 6.97753C14.223 8.09174 13.7622 9.14194 13.0164 9.97467C12.2706 10.8074 11.2788 11.379 10.1862 11.606C9.47146 11.7676 8.74075 11.847 8.00816 11.8426" fill="black"/>
<path id="a" d="M26.167 15.9185C26.1022 14.9668 26.0662 14.1614 26.0464 13.206C26.0212 11.9509 26.0068 10.8945 25.9978 9.63941C25.9978 8.9968 25.9143 8.35694 25.7494 7.736C25.6505 7.32473 25.4664 6.93897 25.2089 6.60386C24.9515 6.26875 24.6266 5.99181 24.2554 5.79106C23.8144 5.54064 23.337 5.36089 22.8406 5.25832C21.2632 4.90268 19.6304 4.87013 18.04 5.16261C17.572 5.24387 17.1814 5.35764 16.7404 5.54185C16.2509 5.73586 15.8119 6.03938 15.4569 6.42931C15.102 6.81924 14.8404 7.2853 14.692 7.79198C14.5691 8.17646 14.5316 8.5833 14.5822 8.98387C14.5894 9.05972 14.6092 9.12473 14.6434 9.19516L18.5188 9.29087C18.5069 9.05621 18.5424 8.82156 18.6232 8.60102C18.6812 8.43075 18.7772 8.27602 18.9038 8.14864C19.0305 8.02126 19.1845 7.92459 19.354 7.86602C19.8503 7.67508 20.3977 7.66549 20.9002 7.83894C21.0668 7.89065 21.218 7.98282 21.3404 8.10726C21.4629 8.2317 21.5528 8.38456 21.6022 8.55226C21.667 8.76897 21.6346 8.98567 21.5032 9.17168C21.3952 9.33067 21.2404 9.45188 21.0604 9.51841C20.9452 9.56356 20.8444 9.59426 20.7274 9.62677C20.2176 9.76623 19.7009 9.87895 19.1794 9.96447C18.7438 10.0367 18.3766 10.1035 17.9446 10.192C17.3886 10.3014 16.8398 10.4449 16.3012 10.6218C15.8042 10.7776 15.3488 11.0443 14.9692 11.402C14.4606 11.8552 14.1331 12.4783 14.0476 13.1555C13.981 13.6268 13.9972 14.0367 14.1016 14.5009C14.2225 15.079 14.4997 15.6126 14.903 16.043C15.3063 16.4733 15.82 16.7839 16.3876 16.9406C17.6407 17.3254 18.9885 17.2571 20.1964 16.7474C20.7866 16.517 21.3065 16.1361 21.7048 15.6422L21.4312 13.6557C21.2488 13.948 20.9811 14.1769 20.6644 14.3112C20.3584 14.4467 20.0794 14.5189 19.7464 14.5532C19.4674 14.5803 19.2262 14.5605 18.9562 14.4846C18.7466 14.4302 18.5572 14.316 18.4108 14.1559C18.2824 14.0214 18.195 13.8529 18.1588 13.6702C18.1281 13.5309 18.1364 13.3858 18.1828 13.251C18.2292 13.1162 18.3119 12.9969 18.4216 12.9063C18.5644 12.7814 18.7292 12.6846 18.9076 12.6209C19.3338 12.4628 19.7662 12.3218 20.2036 12.1984C20.7598 12.0412 21.2188 11.8715 21.7462 11.6277C21.7966 12.0503 21.7948 12.4114 21.7354 12.8322C21.694 13.141 21.5986 13.3957 21.4312 13.6557L21.7048 15.6422C21.7894 15.9239 21.8668 16.1587 21.964 16.4368C22.018 16.5903 22.09 16.7095 22.198 16.8305H26.464C26.2874 16.5583 26.185 16.2445 26.167 15.9203" fill="black"/>
<path id="b" d="M31.2693 6.49355C31.8037 6.01773 32.4062 5.62509 33.0567 5.32875C34.1185 4.81736 35.3335 4.72706 36.4587 5.07592C37.0642 5.24325 37.6174 5.56197 38.0667 6.00225C38.5159 6.44253 38.8464 6.98997 39.0273 7.59333C39.2135 8.16634 39.3059 8.76585 39.3009 9.36852V16.8232H34.7289V10.1198C34.7289 9.89584 34.7001 9.70442 34.6353 9.49132C34.5819 9.30623 34.4872 9.13575 34.3584 8.99278C34.2296 8.8498 34.0701 8.73807 33.8919 8.66603C33.5042 8.49853 33.0687 8.47955 32.6679 8.61268C32.2672 8.74582 31.929 9.02182 31.7175 9.38838C31.5362 9.68938 31.4426 10.0354 31.4475 10.387V16.8232H27.0195V5.27276H31.1721L31.2693 6.49355Z" fill="black"/>
<path id="a_2" d="M52.0147 15.9185C51.9499 14.9668 51.9139 14.1614 51.8941 13.206C51.8689 11.9509 51.8545 10.8945 51.8455 9.63941C51.8455 8.9968 51.762 8.35694 51.5971 7.736C51.4982 7.32473 51.314 6.93897 51.0566 6.60386C50.7992 6.26875 50.4743 5.99181 50.1031 5.79106C49.662 5.54064 49.1847 5.36089 48.6883 5.25832C47.1108 4.90268 45.478 4.87013 43.8877 5.16261C43.4197 5.24387 43.0291 5.35764 42.5881 5.54185C42.0985 5.73586 41.6596 6.03938 41.3046 6.42931C40.9496 6.81924 40.688 7.2853 40.5397 7.79198C40.4167 8.17646 40.3793 8.5833 40.4299 8.98387C40.4371 9.05972 40.4569 9.12473 40.4911 9.19516L44.3665 9.29087C44.3546 9.05621 44.3901 8.82156 44.4709 8.60102C44.5289 8.43075 44.6248 8.27602 44.7515 8.14864C44.8781 8.02126 45.0321 7.92459 45.2017 7.86602C45.6979 7.67508 46.2453 7.66549 46.7479 7.83894C46.9144 7.89065 47.0656 7.98282 47.1881 8.10726C47.3105 8.2317 47.4005 8.38456 47.4499 8.55226C47.5147 8.76897 47.4823 8.98567 47.3509 9.17168C47.2429 9.33067 47.0881 9.45188 46.9081 9.51841C46.7929 9.56356 46.6921 9.59426 46.5751 9.62677C46.0653 9.76623 45.5486 9.87895 45.0271 9.96447C44.5915 10.0367 44.2243 10.1035 43.7923 10.192C43.2363 10.3014 42.6874 10.4449 42.1489 10.6218C41.6519 10.7776 41.1965 11.0443 40.8169 11.402C40.3082 11.8552 39.9808 12.4783 39.8953 13.1555C39.8287 13.6268 39.8449 14.0367 39.9493 14.5009C40.0701 15.079 40.3474 15.6126 40.7507 16.043C41.1539 16.4733 41.6676 16.7839 42.2353 16.9406C43.4883 17.3254 44.8362 17.2571 46.0441 16.7474C46.6342 16.517 47.1542 16.1361 47.5525 15.6422L47.2789 13.6557C47.0965 13.948 46.8287 14.1769 46.5121 14.3112C46.2061 14.4467 45.9271 14.5189 45.5941 14.5532C45.3151 14.5803 45.0739 14.5605 44.8039 14.4846C44.5943 14.4302 44.4049 14.316 44.2585 14.1559C44.1301 14.0214 44.0426 13.8529 44.0065 13.6702C43.9758 13.5309 43.9841 13.3858 44.0305 13.251C44.0769 13.1162 44.1595 12.9969 44.2693 12.9063C44.412 12.7814 44.5769 12.6846 44.7553 12.6209C45.1815 12.4628 45.6138 12.3218 46.0513 12.1984C46.6075 12.0412 47.0665 11.8715 47.5939 11.6277C47.6443 12.0503 47.6425 12.4114 47.5831 12.8322C47.5417 13.141 47.4463 13.3957 47.2789 13.6557L47.5525 15.6422C47.6371 15.9239 47.7145 16.1587 47.8117 16.4368C47.8657 16.5903 47.9377 16.7095 48.0457 16.8305H52.3117C52.1351 16.5583 52.0327 16.2445 52.0147 15.9203" fill="black"/>
<path id="Vector_2" d="M58.4028 12.5776C58.7322 12.6336 59.0076 12.704 59.3244 12.8087C59.4514 12.8486 59.5653 12.9222 59.654 13.0217C59.7427 13.1212 59.803 13.2429 59.8284 13.374C59.861 13.5153 59.8568 13.6626 59.8162 13.8018C59.7755 13.941 59.6997 14.0673 59.5962 14.1686C59.3919 14.3811 59.1226 14.5191 58.8312 14.5604C58.4244 14.6255 58.0644 14.5929 57.6792 14.4521C57.4997 14.3897 57.3332 14.2948 57.1878 14.1722C56.9966 14.0146 56.8569 13.8033 56.7864 13.5654C56.7237 13.3664 56.6945 13.1582 56.7 12.9496H52.4844V13.1952C52.4844 13.5925 52.5456 13.9302 52.6842 14.304C52.8966 14.8638 53.1864 15.2972 53.6238 15.7054C54.163 16.2209 54.8219 16.5934 55.5408 16.7889C57.0211 17.23 58.5818 17.3288 60.1056 17.0779C60.8209 16.9744 61.5132 16.7484 62.1522 16.4097C62.4357 16.2633 62.7015 16.0845 62.9442 15.8769C63.4969 15.425 63.8992 14.8146 64.0973 14.1274C64.2954 13.4401 64.2799 12.7086 64.053 12.0304C63.8953 11.5173 63.5941 11.0604 63.1854 10.7139C62.636 10.2264 61.9837 9.87012 61.2774 9.6719L60.8166 9.54007C59.9607 9.29816 59.0901 9.11236 58.2102 8.98386C57.9618 8.94774 57.753 8.90801 57.5082 8.85022C57.401 8.82482 57.2966 8.78851 57.1968 8.74187C57.1351 8.71413 57.0794 8.67446 57.033 8.62514C56.9866 8.57582 56.9503 8.51781 56.9262 8.45442C56.9022 8.39103 56.8908 8.32351 56.8927 8.2557C56.8947 8.1879 56.9099 8.12114 56.9376 8.05924L56.9574 8.01951C57.022 7.90011 57.11 7.79505 57.2161 7.71063C57.3222 7.62622 57.4442 7.5642 57.5748 7.52831C58.0572 7.38926 58.5 7.4019 58.9734 7.56082C59.1914 7.63305 59.3797 7.77528 59.5092 7.96557C59.6387 8.15585 59.7021 8.38359 59.6898 8.61365H63.7542C63.7542 8.13786 63.6701 7.66583 63.5058 7.2195C63.3473 6.76089 63.0582 6.35902 62.6742 6.06374C62.3475 5.80018 61.9811 5.59048 61.5888 5.44251C61.2088 5.29237 60.8143 5.18223 60.4116 5.11384C59.4575 4.94259 58.4862 4.88802 57.519 4.95131C56.9358 4.98381 56.4444 5.05605 55.8738 5.18969C55.107 5.37027 54.4878 5.66825 53.8686 6.15584C53.3595 6.54558 52.9789 7.07972 52.776 7.68904C52.5301 8.42494 52.5569 9.22513 52.8516 9.94278C53.0051 10.3481 53.2425 10.7161 53.5481 11.0227C53.8537 11.3293 54.2206 11.5675 54.6246 11.7216C55.0512 11.8913 55.4238 12.0033 55.8738 12.0954C56.7612 12.2796 57.5118 12.4223 58.4046 12.5758M72.2124 5.05244C71.757 4.9802 71.3682 4.9495 70.9074 4.9495C70.4466 4.9495 70.0596 4.9802 69.6024 5.05244C68.3339 5.23402 67.1571 5.8196 66.2454 6.72288C65.2384 7.66386 64.6214 8.95076 64.5174 10.3274C64.4344 11.1626 64.5108 12.0059 64.7424 12.8123C65.1024 14.1162 65.7828 15.1239 66.8538 15.9456C67.5196 16.4703 68.2979 16.8326 69.1272 17.0038C69.712 17.1354 70.3099 17.1996 70.9092 17.1952C71.5392 17.1952 72.072 17.1411 72.6894 17.0038C73.5187 16.8326 74.2969 16.4703 74.9628 15.9456L72.4896 13.2403C72.3962 13.4487 72.2627 13.6366 72.0969 13.7933C71.9311 13.9499 71.7361 14.0722 71.5231 14.1532C71.3102 14.2343 71.0834 14.2724 70.8557 14.2654C70.6281 14.2584 70.404 14.2065 70.1964 14.1126C69.8066 13.9433 69.4957 13.6314 69.327 13.2403C69.1653 12.8867 69.0556 12.5114 69.0012 12.1261C68.8788 11.3135 68.8932 10.6092 69.0498 9.80373C69.1308 9.38657 69.2712 9.04526 69.5034 8.68769C69.6565 8.45447 69.8649 8.26305 70.11 8.13059C70.355 7.99814 70.629 7.9288 70.9074 7.9288C71.1857 7.9288 71.4597 7.99814 71.7048 8.13059C71.9498 8.26305 72.1583 8.45447 72.3114 8.68769C72.5371 9.02465 72.6915 9.4045 72.765 9.80373C72.9216 10.611 72.9378 11.3153 72.8154 12.1261C72.7542 12.5324 72.657 12.8665 72.4896 13.2403L74.9628 15.9456C76.0006 15.1722 76.7448 14.067 77.0724 12.8123C77.3082 11.9636 77.3766 11.2051 77.2974 10.3274C77.1937 8.95066 76.5767 7.66365 75.5694 6.72288C74.6579 5.81928 73.481 5.23365 72.2124 5.05244Z" fill="black"/>
<path id="b_2" d="M82.1912 6.49355C82.7256 6.01773 83.3281 5.62509 83.9786 5.32875C85.0403 4.81736 86.2554 4.72706 87.3806 5.07592C87.9861 5.24325 88.5393 5.56197 88.9885 6.00225C89.4378 6.44253 89.7683 6.98997 89.9492 7.59333C90.1354 8.16634 90.2278 8.76585 90.2228 9.36852V16.8232H85.6508V10.1198C85.6508 9.89584 85.622 9.70442 85.5572 9.49132C85.5037 9.30623 85.409 9.13575 85.2802 8.99278C85.1515 8.8498 84.992 8.73807 84.8138 8.66603C84.4261 8.49853 83.9906 8.47955 83.5898 8.61268C83.189 8.74582 82.8509 9.02182 82.6394 9.38838C82.4581 9.68938 82.3645 10.0354 82.3694 10.387V16.8232H77.9414V5.27276H82.094L82.1912 6.49355Z" fill="black"/>
<path id="Vector_3" d="M91.1055 0.653305V3.70526H95.4093V0.653305H91.1055ZM91.1055 5.27457V16.825H95.4093V5.27457H91.1055ZM106.971 15.3262C106.15 16.2163 105.066 16.8173 103.878 17.0399C103.043 17.2097 102.312 17.2458 101.464 17.1573C100.388 17.0608 99.3618 16.6586 98.5053 15.9979C97.7952 15.4781 97.2042 14.8119 96.7719 14.044C96.4263 13.4562 96.1954 12.8077 96.0915 12.1333C95.9295 11.1509 95.9727 10.2877 96.2301 9.32699C96.8187 7.14186 98.4549 5.59422 100.663 5.13372C101.923 4.87186 103.043 4.89895 104.29 5.2222C105.14 5.43171 105.92 5.86068 106.553 6.46646C106.958 6.83725 107.294 7.27832 107.543 7.76851C107.853 8.34354 107.994 8.9945 107.952 9.64663H104.015C103.978 9.39402 103.892 9.15124 103.761 8.93238C103.63 8.71352 103.457 8.52294 103.252 8.37167C102.991 8.16659 102.673 8.04777 102.342 8.0316C102.011 8.01543 101.683 8.1027 101.403 8.28138C101.013 8.51647 100.724 8.88936 100.593 9.32699C100.256 10.3545 100.239 11.4604 100.543 12.4981C100.66 12.9377 100.899 13.3349 101.232 13.6431C101.417 13.8255 101.642 13.9615 101.889 14.04C102.136 14.1184 102.399 14.1371 102.654 14.0945C102.977 14.0529 103.273 13.8935 103.486 13.6467C103.714 13.399 103.864 13.0893 103.918 12.7564C103.961 12.5126 103.984 12.3049 103.999 12.0575H108.148C108.197 12.6552 108.117 13.2565 107.914 13.8205C107.711 14.3845 107.389 14.898 106.971 15.3262Z" fill="black"/>
</g>
<defs>
<clipPath id="clip0_879_8445">
<rect width="108" height="16.56" fill="white" transform="translate(0.160156 0.653305)"/>
</clipPath>
</defs>
</svg>
