<svg width="109" height="18" viewBox="0 0 109 18" fill="none" xmlns="http://www.w3.org/2000/svg">
<g id="samsung_logo.svg" clip-path="url(#clip0_879_8402)">
<g id="Group">
<path id="Vector" d="M4.67384 5.00079C4.59454 4.68309 4.61437 4.36539 4.65401 4.18669C4.75313 3.69028 5.09014 3.15417 6.0615 3.15417C6.9734 3.15417 7.48882 3.71014 7.48882 4.56395C7.48882 4.84194 7.48882 5.51705 7.48882 5.51705H11.3346V4.42496C11.3545 1.04942 8.32141 0.513306 6.1408 0.513306C3.40511 0.513306 1.16503 1.42669 0.748727 3.94841C0.629784 4.64338 0.60996 5.25892 0.788374 6.03331C1.46238 9.19043 6.95357 10.1038 7.74652 12.1093C7.90511 12.4865 7.84564 12.9631 7.78617 13.2609C7.66723 13.7772 7.3104 14.3133 6.27956 14.3133C5.3082 14.3133 4.73331 13.7573 4.73331 12.9035V11.4143H0.570312V12.6057C0.570312 16.0606 3.28617 17.0932 6.18044 17.0932C8.9756 17.0932 11.2553 16.1401 11.632 13.5588C11.8104 12.2284 11.6716 11.3547 11.6122 11.037C10.9778 7.76079 5.10996 6.80769 4.67384 5.00079ZM54.8875 5.02064C54.828 4.7228 54.8478 4.38525 54.8677 4.2264C54.9866 3.73 55.3038 3.19388 56.2752 3.19388C57.1672 3.19388 57.6827 3.74985 57.6827 4.58381C57.6827 4.86179 57.6827 5.5369 57.6827 5.5369H61.4888V4.46467C61.4888 1.12885 58.5152 0.612586 56.3545 0.612586C53.6386 0.612586 51.4183 1.50611 51.002 4.00798C50.9029 4.68309 50.8633 5.29863 51.0417 6.07302C51.6959 9.19043 57.1276 10.1038 57.9205 12.0894C58.0593 12.4667 58.0197 12.9432 57.9404 13.2212C57.8214 13.7375 57.4844 14.2537 56.4536 14.2537C55.502 14.2537 54.9073 13.6978 54.9073 12.8638V11.3746H50.8038V12.5461C50.8038 15.9614 53.48 16.9939 56.3545 16.9939C59.11 16.9939 61.3897 16.0408 61.7465 13.4992C61.9249 12.1688 61.7862 11.315 61.7267 10.9973C61.1122 7.78064 55.3236 6.82755 54.8875 5.02064ZM89.936 13.4595L86.3082 1.00971H80.5791V16.3188H84.3655L84.1474 3.47187L88.0527 16.3188H93.5439V1.00971H89.7377L89.936 13.4595ZM17.1034 1.00971L14.2289 16.4776H18.3919L20.5527 2.16136L22.654 16.4776H26.7972L23.9624 1.00971H17.1034ZM40.4161 1.00971L38.4734 13.1021L36.5307 1.00971H30.2267L29.8897 16.4776H33.7553L33.8545 2.16136L36.5108 16.4776H40.4161L43.0725 2.16136L43.1716 16.4776H47.0373L46.7003 1.00971H40.4161ZM76.2972 1.00971H72.3919V12.4468C72.3919 12.6454 72.3919 12.8638 72.3523 13.0425C72.273 13.4198 71.9558 14.1743 70.8655 14.1743C69.795 14.1743 69.4778 13.4396 69.3985 13.0425C69.3589 12.8837 69.3589 12.6454 69.3589 12.4468V1.00971H65.4536V12.0894C65.4536 12.3674 65.4734 12.9631 65.4932 13.1021C65.7708 15.9812 68.0307 16.9343 70.8655 16.9343C73.7003 16.9343 75.98 16.0011 76.2575 13.1021C76.2774 12.9432 76.317 12.3674 76.2972 12.0894V1.00971ZM103.099 7.78064V10.0442H104.685V12.288C104.685 12.4865 104.685 12.705 104.645 12.8837C104.586 13.3006 104.189 14.0155 103.059 14.0155C101.949 14.0155 101.553 13.3006 101.493 12.8837C101.473 12.705 101.454 12.4865 101.454 12.288V5.2192C101.454 4.96108 101.473 4.70295 101.533 4.48453C101.612 4.10726 101.949 3.37259 103.059 3.37259C104.249 3.37259 104.526 4.14697 104.606 4.48453C104.645 4.70295 104.645 5.08021 104.645 5.08021V5.93402H108.531V5.41777C108.531 5.41777 108.55 4.88165 108.511 4.38525C108.213 1.50611 105.815 0.59273 103.079 0.59273C100.343 0.59273 98.0042 1.52597 97.6672 4.4051C97.6276 4.66323 97.5879 5.13978 97.5879 5.43762V11.9306C97.5879 12.2086 97.5879 12.427 97.6474 12.9432C97.9051 15.7628 100.343 16.7556 103.079 16.7556C105.835 16.7556 108.253 15.7628 108.511 12.9432C108.55 12.427 108.57 12.2086 108.57 11.9306V7.78064H103.099Z" fill="#1428A0"/>
</g>
</g>
<defs>
<clipPath id="clip0_879_8402">
<rect width="108" height="16.56" fill="white" transform="translate(0.570312 0.513306)"/>
</clipPath>
</defs>
</svg>
