<svg width="109" height="20" viewBox="0 0 109 20" fill="none" xmlns="http://www.w3.org/2000/svg">
<g id="nothing_logo.svg" clip-path="url(#clip0_879_8413)">
<g id="Group">
<path id="Vector" d="M1.7465 2.88189C2.52198 2.88189 3.13167 2.2747 3.13167 1.49993C3.13167 0.727328 2.52198 0.11795 1.7465 0.11795C0.972112 0.11795 0.361328 0.727328 0.361328 1.49993C0.361328 2.2747 0.972112 2.88189 1.7465 2.88189ZM12.8279 2.88189C13.6033 2.88189 14.213 2.2747 14.213 1.49993C14.213 0.727328 13.6033 0.11795 12.8279 0.11795C12.0535 0.11795 11.4427 0.727328 11.4427 1.49993C11.4427 2.2747 12.0535 2.88189 12.8279 2.88189ZM1.7465 7.0278C2.52198 7.0278 3.13167 6.42061 3.13167 5.64584C3.13167 4.87324 2.52198 4.26387 1.7465 4.26387C0.972112 4.26387 0.361328 4.87324 0.361328 5.64584C0.361328 6.42061 0.972112 7.0278 1.7465 7.0278ZM4.51684 7.0278C5.29231 7.0278 5.90201 6.42061 5.90201 5.64584C5.90201 4.87324 5.29231 4.26387 4.51684 4.26387C3.74245 4.26387 3.13167 4.87324 3.13167 5.64584C3.13167 6.42061 3.74245 7.0278 4.51684 7.0278ZM12.8279 7.0278C13.6033 7.0278 14.213 6.42061 14.213 5.64584C14.213 4.87324 13.6033 4.26387 12.8279 4.26387C12.0535 4.26387 11.4427 4.87324 11.4427 5.64584C11.4427 6.42061 12.0535 7.0278 12.8279 7.0278ZM1.7465 11.1737C2.52198 11.1737 3.13167 10.5665 3.13167 9.79175C3.13167 9.01915 2.52198 8.40978 1.7465 8.40978C0.972112 8.40978 0.361328 9.01915 0.361328 9.79175C0.361328 10.5665 0.972112 11.1737 1.7465 11.1737ZM7.28718 11.1737C8.06266 11.1737 8.67235 10.5665 8.67235 9.79175C8.67235 9.01915 8.06266 8.40978 7.28718 8.40978C6.51279 8.40978 5.90201 9.01915 5.90201 9.79175C5.90201 10.5665 6.51279 11.1737 7.28718 11.1737ZM12.8279 11.1737C13.6033 11.1737 14.213 10.5665 14.213 9.79175C14.213 9.01915 13.6033 8.40978 12.8279 8.40978C12.0535 8.40978 11.4427 9.01915 11.4427 9.79175C11.4427 10.5665 12.0535 11.1737 12.8279 11.1737ZM1.7465 15.3196C2.52198 15.3196 3.13167 14.7124 3.13167 13.9377C3.13167 13.1651 2.52198 12.5557 1.7465 12.5557C0.972112 12.5557 0.361328 13.1651 0.361328 13.9377C0.361328 14.7124 0.972112 15.3196 1.7465 15.3196ZM10.0575 15.3196C10.833 15.3196 11.4427 14.7124 11.4427 13.9377C11.4427 13.1651 10.833 12.5557 10.0575 12.5557C9.28313 12.5557 8.67235 13.1651 8.67235 13.9377C8.67235 14.7124 9.28313 15.3196 10.0575 15.3196ZM12.8279 15.3196C13.6033 15.3196 14.213 14.7124 14.213 13.9377C14.213 13.1651 13.6033 12.5557 12.8279 12.5557C12.0535 12.5557 11.4427 13.1651 11.4427 13.9377C11.4427 14.7124 12.0535 15.3196 12.8279 15.3196ZM1.7465 19.4655C2.52198 19.4655 3.13167 18.8584 3.13167 18.0836C3.13167 17.311 2.52198 16.7016 1.7465 16.7016C0.972112 16.7016 0.361328 17.311 0.361328 18.0836C0.361328 18.8584 0.972112 19.4655 1.7465 19.4655ZM12.8279 19.4655C13.6033 19.4655 14.213 18.8584 14.213 18.0836C14.213 17.311 13.6033 16.7016 12.8279 16.7016C12.0535 16.7016 11.4427 17.311 11.4427 18.0836C11.4427 18.8584 12.0535 19.4655 12.8279 19.4655ZM21.128 2.88189C21.9045 2.88189 22.5131 2.2747 22.5131 1.49993C22.5131 0.727328 21.9045 0.11795 21.128 0.11795C20.3536 0.11795 19.7428 0.727328 19.7428 1.49993C19.7428 2.2747 20.3536 2.88189 21.128 2.88189ZM23.8983 2.88189C24.6749 2.88189 25.2835 2.2747 25.2835 1.49993C25.2835 0.727328 24.6749 0.11795 23.8983 0.11795C23.1239 0.11795 22.5131 0.727328 22.5131 1.49993C22.5131 2.2747 23.1239 2.88189 23.8983 2.88189ZM26.6687 2.88189C27.4452 2.88189 28.0538 2.2747 28.0538 1.49993C28.0538 0.727328 27.4452 0.11795 26.6687 0.11795C25.8943 0.11795 25.2835 0.727328 25.2835 1.49993C25.2835 2.2747 25.8943 2.88189 26.6687 2.88189ZM18.3576 7.0278C19.1342 7.0278 19.7428 6.42061 19.7428 5.64584C19.7428 4.87324 19.1342 4.26387 18.3576 4.26387C17.5832 4.26387 16.9725 4.87324 16.9725 5.64584C16.9725 6.42061 17.5832 7.0278 18.3576 7.0278ZM29.439 7.0278C30.2156 7.0278 30.8242 6.42061 30.8242 5.64584C30.8242 4.87324 30.2156 4.26387 29.439 4.26387C28.6646 4.26387 28.0538 4.87324 28.0538 5.64584C28.0538 6.42061 28.6646 7.0278 29.439 7.0278ZM18.3576 11.1737C19.1342 11.1737 19.7428 10.5665 19.7428 9.79175C19.7428 9.01915 19.1342 8.40978 18.3576 8.40978C17.5832 8.40978 16.9725 9.01915 16.9725 9.79175C16.9725 10.5665 17.5832 11.1737 18.3576 11.1737ZM29.439 11.1737C30.2156 11.1737 30.8242 10.5665 30.8242 9.79175C30.8242 9.01915 30.2156 8.40978 29.439 8.40978C28.6646 8.40978 28.0538 9.01915 28.0538 9.79175C28.0538 10.5665 28.6646 11.1737 29.439 11.1737ZM18.3576 15.3196C19.1342 15.3196 19.7428 14.7124 19.7428 13.9377C19.7428 13.1651 19.1342 12.5557 18.3576 12.5557C17.5832 12.5557 16.9725 13.1651 16.9725 13.9377C16.9725 14.7124 17.5832 15.3196 18.3576 15.3196ZM29.439 15.3196C30.2156 15.3196 30.8242 14.7124 30.8242 13.9377C30.8242 13.1651 30.2156 12.5557 29.439 12.5557C28.6646 12.5557 28.0538 13.1651 28.0538 13.9377C28.0538 14.7124 28.6646 15.3196 29.439 15.3196ZM21.128 19.4655C21.9045 19.4655 22.5131 18.8584 22.5131 18.0836C22.5131 17.311 21.9045 16.7016 21.128 16.7016C20.3536 16.7016 19.7428 17.311 19.7428 18.0836C19.7428 18.8584 20.3536 19.4655 21.128 19.4655ZM23.8983 19.4655C24.6749 19.4655 25.2835 18.8584 25.2835 18.0836C25.2835 17.311 24.6749 16.7016 23.8983 16.7016C23.1239 16.7016 22.5131 17.311 22.5131 18.0836C22.5131 18.8584 23.1239 19.4655 23.8983 19.4655ZM26.6687 19.4655C27.4452 19.4655 28.0538 18.8584 28.0538 18.0836C28.0538 17.311 27.4452 16.7016 26.6687 16.7016C25.8943 16.7016 25.2835 17.311 25.2835 18.0836C25.2835 18.8584 25.8943 19.4655 26.6687 19.4655ZM34.9688 2.88189C35.7453 2.88189 36.3539 2.2747 36.3539 1.49993C36.3539 0.727328 35.7453 0.11795 34.9688 0.11795C34.1944 0.11795 33.5836 0.727328 33.5836 1.49993C33.5836 2.2747 34.1944 2.88189 34.9688 2.88189ZM37.7391 2.88189C38.5157 2.88189 39.1243 2.2747 39.1243 1.49993C39.1243 0.727328 38.5157 0.11795 37.7391 0.11795C36.9647 0.11795 36.3539 0.727328 36.3539 1.49993C36.3539 2.2747 36.9647 2.88189 37.7391 2.88189ZM40.5095 2.88189C41.286 2.88189 41.8946 2.2747 41.8946 1.49993C41.8946 0.727328 41.286 0.11795 40.5095 0.11795C39.7351 0.11795 39.1243 0.727328 39.1243 1.49993C39.1243 2.2747 39.7351 2.88189 40.5095 2.88189ZM43.2798 2.88189C44.0564 2.88189 44.665 2.2747 44.665 1.49993C44.665 0.727328 44.0564 0.11795 43.2798 0.11795C42.5054 0.11795 41.8946 0.727328 41.8946 1.49993C41.8946 2.2747 42.5054 2.88189 43.2798 2.88189ZM46.0501 2.88189C46.8267 2.88189 47.4353 2.2747 47.4353 1.49993C47.4353 0.727328 46.8267 0.11795 46.0501 0.11795C45.2757 0.11795 44.665 0.727328 44.665 1.49993C44.665 2.2747 45.2757 2.88189 46.0501 2.88189ZM40.5095 7.0278C41.286 7.0278 41.8946 6.42061 41.8946 5.64584C41.8946 4.87324 41.286 4.26387 40.5095 4.26387C39.7351 4.26387 39.1243 4.87324 39.1243 5.64584C39.1243 6.42061 39.7351 7.0278 40.5095 7.0278ZM40.5095 11.1737C41.286 11.1737 41.8946 10.5665 41.8946 9.79175C41.8946 9.01915 41.286 8.40978 40.5095 8.40978C39.7351 8.40978 39.1243 9.01915 39.1243 9.79175C39.1243 10.5665 39.7351 11.1737 40.5095 11.1737ZM40.5095 15.3196C41.286 15.3196 41.8946 14.7124 41.8946 13.9377C41.8946 13.1651 41.286 12.5557 40.5095 12.5557C39.7351 12.5557 39.1243 13.1651 39.1243 13.9377C39.1243 14.7124 39.7351 15.3196 40.5095 15.3196ZM40.5095 19.4655C41.286 19.4655 41.8946 18.8584 41.8946 18.0836C41.8946 17.311 41.286 16.7016 40.5095 16.7016C39.7351 16.7016 39.1243 17.311 39.1243 18.0836C39.1243 18.8584 39.7351 19.4655 40.5095 19.4655ZM51.5799 2.88189C52.3565 2.88189 52.9651 2.2747 52.9651 1.49993C52.9651 0.727328 52.3565 0.11795 51.5799 0.11795C50.8055 0.11795 50.1947 0.727328 50.1947 1.49993C50.1947 2.2747 50.8055 2.88189 51.5799 2.88189ZM62.6613 2.88189C63.4378 2.88189 64.0464 2.2747 64.0464 1.49993C64.0464 0.727328 63.4378 0.11795 62.6613 0.11795C61.8869 0.11795 61.2761 0.727328 61.2761 1.49993C61.2761 2.2747 61.8869 2.88189 62.6613 2.88189ZM51.5799 7.0278C52.3565 7.0278 52.9651 6.42061 52.9651 5.64584C52.9651 4.87324 52.3565 4.26387 51.5799 4.26387C50.8055 4.26387 50.1947 4.87324 50.1947 5.64584C50.1947 6.42061 50.8055 7.0278 51.5799 7.0278ZM62.6613 7.0278C63.4378 7.0278 64.0464 6.42061 64.0464 5.64584C64.0464 4.87324 63.4378 4.26387 62.6613 4.26387C61.8869 4.26387 61.2761 4.87324 61.2761 5.64584C61.2761 6.42061 61.8869 7.0278 62.6613 7.0278ZM51.5799 11.1737C52.3565 11.1737 52.9651 10.5665 52.9651 9.79175C52.9651 9.01915 52.3565 8.40978 51.5799 8.40978C50.8055 8.40978 50.1947 9.01915 50.1947 9.79175C50.1947 10.5665 50.8055 11.1737 51.5799 11.1737ZM54.3503 11.1737C55.1268 11.1737 55.7354 10.5665 55.7354 9.79175C55.7354 9.01915 55.1268 8.40978 54.3503 8.40978C53.5759 8.40978 52.9651 9.01915 52.9651 9.79175C52.9651 10.5665 53.5759 11.1737 54.3503 11.1737ZM57.1206 11.1737C57.8972 11.1737 58.5058 10.5665 58.5058 9.79175C58.5058 9.01915 57.8972 8.40978 57.1206 8.40978C56.3462 8.40978 55.7354 9.01915 55.7354 9.79175C55.7354 10.5665 56.3462 11.1737 57.1206 11.1737ZM59.8909 11.1737C60.6675 11.1737 61.2761 10.5665 61.2761 9.79175C61.2761 9.01915 60.6675 8.40978 59.8909 8.40978C59.1165 8.40978 58.5058 9.01915 58.5058 9.79175C58.5058 10.5665 59.1165 11.1737 59.8909 11.1737ZM62.6613 11.1737C63.4378 11.1737 64.0464 10.5665 64.0464 9.79175C64.0464 9.01915 63.4378 8.40978 62.6613 8.40978C61.8869 8.40978 61.2761 9.01915 61.2761 9.79175C61.2761 10.5665 61.8869 11.1737 62.6613 11.1737ZM51.5799 15.3196C52.3565 15.3196 52.9651 14.7124 52.9651 13.9377C52.9651 13.1651 52.3565 12.5557 51.5799 12.5557C50.8055 12.5557 50.1947 13.1651 50.1947 13.9377C50.1947 14.7124 50.8055 15.3196 51.5799 15.3196ZM62.6613 15.3196C63.4378 15.3196 64.0464 14.7124 64.0464 13.9377C64.0464 13.1651 63.4378 12.5557 62.6613 12.5557C61.8869 12.5557 61.2761 13.1651 61.2761 13.9377C61.2761 14.7124 61.8869 15.3196 62.6613 15.3196ZM51.5799 19.4655C52.3565 19.4655 52.9651 18.8584 52.9651 18.0836C52.9651 17.311 52.3565 16.7016 51.5799 16.7016C50.8055 16.7016 50.1947 17.311 50.1947 18.0836C50.1947 18.8584 50.8055 19.4655 51.5799 19.4655ZM62.6613 19.4655C63.4378 19.4655 64.0464 18.8584 64.0464 18.0836C64.0464 17.311 63.4378 16.7016 62.6613 16.7016C61.8869 16.7016 61.2761 17.311 61.2761 18.0836C61.2761 18.8584 61.8869 19.4655 62.6613 19.4655ZM68.1921 2.88189C68.9665 2.88189 69.5773 2.2747 69.5773 1.49993C69.5773 0.727328 68.9665 0.11795 68.1921 0.11795C67.4156 0.11795 66.807 0.727328 66.807 1.49993C66.807 2.2747 67.4156 2.88189 68.1921 2.88189ZM70.9625 2.88189C71.7369 2.88189 72.3476 2.2747 72.3476 1.49993C72.3476 0.727328 71.7369 0.11795 70.9625 0.11795C70.1859 0.11795 69.5773 0.727328 69.5773 1.49993C69.5773 2.2747 70.1859 2.88189 70.9625 2.88189ZM73.7328 2.88189C74.5072 2.88189 75.118 2.2747 75.118 1.49993C75.118 0.727328 74.5072 0.11795 73.7328 0.11795C72.9563 0.11795 72.3476 0.727328 72.3476 1.49993C72.3476 2.2747 72.9563 2.88189 73.7328 2.88189ZM70.9625 7.0278C71.7369 7.0278 72.3476 6.42061 72.3476 5.64584C72.3476 4.87324 71.7369 4.26387 70.9625 4.26387C70.1859 4.26387 69.5773 4.87324 69.5773 5.64584C69.5773 6.42061 70.1859 7.0278 70.9625 7.0278ZM70.9625 11.1737C71.7369 11.1737 72.3476 10.5665 72.3476 9.79175C72.3476 9.01915 71.7369 8.40978 70.9625 8.40978C70.1859 8.40978 69.5773 9.01915 69.5773 9.79175C69.5773 10.5665 70.1859 11.1737 70.9625 11.1737ZM70.9625 15.3196C71.7369 15.3196 72.3476 14.7124 72.3476 13.9377C72.3476 13.1651 71.7369 12.5557 70.9625 12.5557C70.1859 12.5557 69.5773 13.1651 69.5773 13.9377C69.5773 14.7124 70.1859 15.3196 70.9625 15.3196ZM68.1921 19.4655C68.9665 19.4655 69.5773 18.8584 69.5773 18.0836C69.5773 17.311 68.9665 16.7016 68.1921 16.7016C67.4156 16.7016 66.807 17.311 66.807 18.0836C66.807 18.8584 67.4156 19.4655 68.1921 19.4655ZM70.9625 19.4655C71.7369 19.4655 72.3476 18.8584 72.3476 18.0836C72.3476 17.311 71.7369 16.7016 70.9625 16.7016C70.1859 16.7016 69.5773 17.311 69.5773 18.0836C69.5773 18.8584 70.1859 19.4655 70.9625 19.4655ZM73.7328 19.4655C74.5072 19.4655 75.118 18.8584 75.118 18.0836C75.118 17.311 74.5072 16.7016 73.7328 16.7016C72.9563 16.7016 72.3476 17.311 72.3476 18.0836C72.3476 18.8584 72.9563 19.4655 73.7328 19.4655ZM79.2833 2.88189C80.0599 2.88189 80.6685 2.2747 80.6685 1.49993C80.6685 0.727328 80.0599 0.11795 79.2833 0.11795C78.5089 0.11795 77.8981 0.727328 77.8981 1.49993C77.8981 2.2747 78.5089 2.88189 79.2833 2.88189ZM90.3647 2.88189C91.1412 2.88189 91.7498 2.2747 91.7498 1.49993C91.7498 0.727328 91.1412 0.11795 90.3647 0.11795C89.5903 0.11795 88.9795 0.727328 88.9795 1.49993C88.9795 2.2747 89.5903 2.88189 90.3647 2.88189ZM79.2833 7.0278C80.0599 7.0278 80.6685 6.42061 80.6685 5.64584C80.6685 4.87324 80.0599 4.26387 79.2833 4.26387C78.5089 4.26387 77.8981 4.87324 77.8981 5.64584C77.8981 6.42061 78.5089 7.0278 79.2833 7.0278ZM82.0537 7.0278C82.8302 7.0278 83.4388 6.42061 83.4388 5.64584C83.4388 4.87324 82.8302 4.26387 82.0537 4.26387C81.2793 4.26387 80.6685 4.87324 80.6685 5.64584C80.6685 6.42061 81.2793 7.0278 82.0537 7.0278ZM90.3647 7.0278C91.1412 7.0278 91.7498 6.42061 91.7498 5.64584C91.7498 4.87324 91.1412 4.26387 90.3647 4.26387C89.5903 4.26387 88.9795 4.87324 88.9795 5.64584C88.9795 6.42061 89.5903 7.0278 90.3647 7.0278ZM79.2833 11.1737C80.0599 11.1737 80.6685 10.5665 80.6685 9.79175C80.6685 9.01915 80.0599 8.40978 79.2833 8.40978C78.5089 8.40978 77.8981 9.01915 77.8981 9.79175C77.8981 10.5665 78.5089 11.1737 79.2833 11.1737ZM84.824 11.1737C85.6006 11.1737 86.2092 10.5665 86.2092 9.79175C86.2092 9.01915 85.6006 8.40978 84.824 8.40978C84.0496 8.40978 83.4388 9.01915 83.4388 9.79175C83.4388 10.5665 84.0496 11.1737 84.824 11.1737ZM90.3647 11.1737C91.1412 11.1737 91.7498 10.5665 91.7498 9.79175C91.7498 9.01915 91.1412 8.40978 90.3647 8.40978C89.5903 8.40978 88.9795 9.01915 88.9795 9.79175C88.9795 10.5665 89.5903 11.1737 90.3647 11.1737ZM79.2833 15.3196C80.0599 15.3196 80.6685 14.7124 80.6685 13.9377C80.6685 13.1651 80.0599 12.5557 79.2833 12.5557C78.5089 12.5557 77.8981 13.1651 77.8981 13.9377C77.8981 14.7124 78.5089 15.3196 79.2833 15.3196ZM87.5943 15.3196C88.3709 15.3196 88.9795 14.7124 88.9795 13.9377C88.9795 13.1651 88.3709 12.5557 87.5943 12.5557C86.82 12.5557 86.2092 13.1651 86.2092 13.9377C86.2092 14.7124 86.82 15.3196 87.5943 15.3196ZM90.3647 15.3196C91.1412 15.3196 91.7498 14.7124 91.7498 13.9377C91.7498 13.1651 91.1412 12.5557 90.3647 12.5557C89.5903 12.5557 88.9795 13.1651 88.9795 13.9377C88.9795 14.7124 89.5903 15.3196 90.3647 15.3196ZM79.2833 19.4655C80.0599 19.4655 80.6685 18.8584 80.6685 18.0836C80.6685 17.311 80.0599 16.7016 79.2833 16.7016C78.5089 16.7016 77.8981 17.311 77.8981 18.0836C77.8981 18.8584 78.5089 19.4655 79.2833 19.4655ZM90.3647 19.4655C91.1412 19.4655 91.7498 18.8584 91.7498 18.0836C91.7498 17.311 91.1412 16.7016 90.3647 16.7016C89.5903 16.7016 88.9795 17.311 88.9795 18.0836C88.9795 18.8584 89.5903 19.4655 90.3647 19.4655ZM98.6659 2.88189C99.4403 2.88189 100.051 2.2747 100.051 1.49993C100.051 0.727328 99.4403 0.11795 98.6659 0.11795C97.8893 0.11795 97.2807 0.727328 97.2807 1.49993C97.2807 2.2747 97.8893 2.88189 98.6659 2.88189ZM101.436 2.88189C102.211 2.88189 102.821 2.2747 102.821 1.49993C102.821 0.727328 102.211 0.11795 101.436 0.11795C100.66 0.11795 100.051 0.727328 100.051 1.49993C100.051 2.2747 100.66 2.88189 101.436 2.88189ZM104.207 2.88189C104.981 2.88189 105.592 2.2747 105.592 1.49993C105.592 0.727328 104.981 0.11795 104.207 0.11795C103.43 0.11795 102.821 0.727328 102.821 1.49993C102.821 2.2747 103.43 2.88189 104.207 2.88189ZM106.977 2.88189C107.751 2.88189 108.362 2.2747 108.362 1.49993C108.362 0.727328 107.751 0.11795 106.977 0.11795C106.2 0.11795 105.592 0.727328 105.592 1.49993C105.592 2.2747 106.2 2.88189 106.977 2.88189ZM95.8955 7.0278C96.6699 7.0278 97.2807 6.42061 97.2807 5.64584C97.2807 4.87324 96.6699 4.26387 95.8955 4.26387C95.119 4.26387 94.5104 4.87324 94.5104 5.64584C94.5104 6.42061 95.119 7.0278 95.8955 7.0278ZM95.8955 11.1737C96.6699 11.1737 97.2807 10.5665 97.2807 9.79175C97.2807 9.01915 96.6699 8.40978 95.8955 8.40978C95.119 8.40978 94.5104 9.01915 94.5104 9.79175C94.5104 10.5665 95.119 11.1737 95.8955 11.1737ZM101.436 11.1737C102.211 11.1737 102.821 10.5665 102.821 9.79175C102.821 9.01915 102.211 8.40978 101.436 8.40978C100.66 8.40978 100.051 9.01915 100.051 9.79175C100.051 10.5665 100.66 11.1737 101.436 11.1737ZM104.207 11.1737C104.981 11.1737 105.592 10.5665 105.592 9.79175C105.592 9.01915 104.981 8.40978 104.207 8.40978C103.43 8.40978 102.821 9.01915 102.821 9.79175C102.821 10.5665 103.43 11.1737 104.207 11.1737ZM106.977 11.1737C107.751 11.1737 108.362 10.5665 108.362 9.79175C108.362 9.01915 107.751 8.40978 106.977 8.40978C106.2 8.40978 105.592 9.01915 105.592 9.79175C105.592 10.5665 106.2 11.1737 106.977 11.1737ZM95.8955 15.3196C96.6699 15.3196 97.2807 14.7124 97.2807 13.9377C97.2807 13.1651 96.6699 12.5557 95.8955 12.5557C95.119 12.5557 94.5104 13.1651 94.5104 13.9377C94.5104 14.7124 95.119 15.3196 95.8955 15.3196ZM106.977 15.3196C107.751 15.3196 108.362 14.7124 108.362 13.9377C108.362 13.1651 107.751 12.5557 106.977 12.5557C106.2 12.5557 105.592 13.1651 105.592 13.9377C105.592 14.7124 106.2 15.3196 106.977 15.3196ZM98.6659 19.4655C99.4403 19.4655 100.051 18.8584 100.051 18.0836C100.051 17.311 99.4403 16.7016 98.6659 16.7016C97.8893 16.7016 97.2807 17.311 97.2807 18.0836C97.2807 18.8584 97.8893 19.4655 98.6659 19.4655ZM101.436 19.4655C102.211 19.4655 102.821 18.8584 102.821 18.0836C102.821 17.311 102.211 16.7016 101.436 16.7016C100.66 16.7016 100.051 17.311 100.051 18.0836C100.051 18.8584 100.66 19.4655 101.436 19.4655ZM104.207 19.4655C104.981 19.4655 105.592 18.8584 105.592 18.0836C105.592 17.311 104.981 16.7016 104.207 16.7016C103.43 16.7016 102.821 17.311 102.821 18.0836C102.821 18.8584 103.43 19.4655 104.207 19.4655Z" fill="black"/>
</g>
</g>
<defs>
<clipPath id="clip0_879_8413">
<rect width="108" height="19.3476" fill="white" transform="translate(0.361328 0.117958)"/>
</clipPath>
</defs>
</svg>
