<svg width="121" height="32" viewBox="0 0 121 32" fill="none" xmlns="http://www.w3.org/2000/svg">
<g id="Frame 2">
<g id="Layer1000">
<path id="path2" fill-rule="evenodd" clip-rule="evenodd" d="M1.304 10.1668C1.304 10.1668 -0.649156 14.1246 0.225289 18.2188C0.225289 18.2188 2.09074 14.1519 2.87775 13.5241C2.87775 13.5241 2.49878 12.2686 2.79028 11.941L1.304 10.1668ZM16.0531 8.02275C16.0531 8.02275 17.802 12.0078 21.708 9.33291L25.4974 14.5736C25.4974 14.5736 24.6521 15.8563 24.5647 16.7025C24.5647 16.7025 15.7326 16.5662 10.0194 13.6457C10.0194 13.6457 10.3109 11.8989 9.78618 11.0527C9.78618 11.0527 11.4477 9.60605 16.0531 8.02275ZM7.45394 15.884C7.45394 15.884 13.0505 19.4323 18.5305 19.4869C18.5305 19.4869 13.517 22.8167 11.1851 30.8413C11.1851 30.8413 4.24769 28.6031 1.27446 22.107C1.27446 22.107 2.96499 16.8118 4.77226 15.6109C4.77226 15.6109 5.73417 16.1022 7.45394 15.884ZM24.9434 19.4326C24.9434 19.4326 17.0149 22.5988 13.8668 31.7152C13.8668 31.7152 21.4455 33.5167 28.4996 28.0577C28.4996 28.0577 28.9951 23.1172 28.2081 20.6881C28.2081 20.6881 26.2551 21.1794 24.9434 19.4326ZM31.7932 17.3726L34.2708 15.8713C34.2708 15.8713 34.4167 21.5758 31.0646 25.1787C31.0646 25.1787 31.0937 20.5932 30.8022 19.5014C30.8022 19.5014 31.6329 18.819 31.7932 17.3726ZM23.6897 7.21909C23.6897 7.21909 28.6451 7.028 32.347 8.36548C32.347 8.36548 33.7169 11.1496 34.1542 13.1694C34.1542 13.1694 31.7348 13.0329 28.7616 14.0155C28.7616 14.0155 26.2839 9.26624 23.6897 7.21909ZM9.81487 1.54177C9.81487 1.54177 21.6494 -3.97185 30.6272 5.85426C30.6272 5.85426 24.8557 4.35315 22.2614 4.68065C22.2614 4.68065 20.2792 2.41519 18.0639 3.53426C18.0639 3.53426 14.0415 1.13237 9.81487 1.54177ZM2.17805 8.17439C2.17805 8.17439 4.68483 4.27128 6.98758 3.07028C6.98758 3.07028 11.7388 3.01577 15.9655 5.36305C15.9655 5.36305 10.777 6.59134 7.42484 9.21159C7.42484 9.21159 5.10073 8.80005 3.75207 10.1396L2.17805 8.17439Z" fill="#005176"/>
<path id="path4" fill-rule="evenodd" clip-rule="evenodd" d="M39.4895 1.65335H51.317V2.50922C48.4342 2.38921 47.6603 3.73312 47.6603 6.16084V14.0036H52.1374L43.1828 17.8817V6.03861C43.1828 3.75023 42.3675 2.26224 39.4883 2.50954L39.4895 1.65335ZM112.805 15.766L117.244 17.8972V6.06313C117.244 3.58291 118.107 2.41214 120.985 2.55127V1.55564H109.157L109.139 2.53374C111.85 2.34326 112.905 3.56472 112.885 5.99318L112.805 15.766ZM82.6725 1.58162H108.566V10.0014H107.428C105.971 0.769177 91.905 0.65741 89.7055 10.1412L83.8477 9.68696L85.5189 5.46194C86.2474 3.6203 84.7314 2.37866 82.6781 2.54165L82.6725 1.58162ZM56.2029 1.54932H74.2984V2.61496C72.1922 2.47351 70.6596 2.94962 71.6383 5.13078L73.7386 9.81203L69.0563 10.2138C67.9576 7.37121 66.7034 5.03836 65.3064 3.17398C65.3064 3.17398 63.5525 3.64596 64.2241 11.0526L59.8402 11.8212L59.8397 5.45002C59.8397 3.32737 58.5434 2.44974 56.2067 2.49305L56.2029 1.54932Z" fill="#2CB9BF"/>
<path id="path6" fill-rule="evenodd" clip-rule="evenodd" d="M43.1712 19.8551C66.8605 7.18841 99.1743 10.523 117.27 19.7154V25.6614C117.27 27.9072 118.536 29.1186 121.001 28.8165V29.7772H107.046C94.6188 29.7772 84.0343 30.2382 84.2134 15.6623L78.3184 30.3009H77.5721L70.1846 14.4044L64.2896 15.3127V24.6831C64.2896 27.3413 64.4188 28.7621 67.9268 28.9034V29.7768H56.1367V28.7986C59.2159 28.9214 59.7932 27.8124 59.7932 25.2421V17.5489H54.9054L47.611 20.0292V26.1325C47.611 28.1434 49.4478 28.9593 51.3602 28.833V29.8635H39.5137V28.8325C41.5935 28.7769 43.1938 28.3634 43.1878 26.1151L43.1712 19.8551ZM89.247 14.4107C89.247 14.4107 100.627 15.4589 112.864 20.2452V25.1889C112.864 28.0219 111.939 28.7058 109.076 28.913C97.14 29.7765 88.0644 28.291 89.247 14.4107ZM74.8086 14.0966H82.905L79.1366 23.1103L74.8086 14.0966Z" fill="#00517C"/>
</g>
</g>
</svg>
